<svg width="96" height="96" viewBox="0 0 96 96" fill="none" xmlns="http://www.w3.org/2000/svg">
<path d="M66.0543 89.6682H29.9453C29.1797 89.6682 28.5547 89.0471 28.5547 88.2776V7.72263C28.5547 6.95701 29.1758 6.33203 29.9453 6.33203H66.0543C66.8199 6.33203 67.4449 6.95312 67.4449 7.72263V88.2776C67.4449 89.0472 66.8238 89.6682 66.0543 89.6682ZM31.3313 86.8909H64.6633L64.6672 9.10993H31.3312L31.3313 86.8909Z" fill="white"/>
<path d="M68.832 9.10934H27.164C26.3984 9.10934 25.7734 8.48825 25.7734 7.71874V2.16404C25.7734 1.39842 26.3945 0.773438 27.164 0.773438H68.832C69.5977 0.773438 70.2226 1.39453 70.2226 2.16404V7.71874C70.2226 8.48827 69.6015 9.10934 68.832 9.10934ZM28.555 6.33204H67.446V3.55474H28.555V6.33204Z" fill="white"/>
<path d="M54.9457 89.6676H41.0547C40.289 89.6676 39.6641 89.0465 39.6641 88.277V68.832C39.6641 68.0664 40.2852 67.4414 41.0547 67.4414H54.9457C55.7113 67.4414 56.3363 68.0625 56.3363 68.832V88.277C56.3324 89.0465 55.7113 89.6676 54.9457 89.6676ZM42.4457 86.8903H53.5547V70.2223H42.4457V86.8903Z" fill="white"/>
<path d="M45.2226 27.1675H36.8906C36.125 27.1675 35.5 26.5465 35.5 25.7769V14.6679C35.5 13.9023 36.1211 13.2773 36.8906 13.2773H45.2226C45.9882 13.2773 46.6132 13.8984 46.6132 14.6679V25.7769C46.6093 26.5465 45.9882 27.1675 45.2226 27.1675ZM38.2773 24.3902H43.832V16.0582H38.2773V24.3902Z" fill="white"/>
<path d="M59.1093 27.1675H50.7773C50.0117 27.1675 49.3867 26.5465 49.3867 25.7769L49.3906 14.6679C49.3906 13.9023 50.0117 13.2773 50.7812 13.2773H59.1132C59.8788 13.2773 60.5038 13.8984 60.5038 14.6679V25.7769C60.4999 26.5465 59.8788 27.1675 59.1093 27.1675ZM52.1679 24.3902H57.7226V16.0582H52.1679V24.3902Z" fill="white"/>
<path d="M45.2226 45.2222H36.8906C36.125 45.2222 35.5 44.6011 35.5 43.8316V32.7226C35.5 31.957 36.1211 31.332 36.8906 31.332H45.2226C45.9882 31.332 46.6132 31.9531 46.6132 32.7226V43.8316C46.6093 44.6012 45.9882 45.2222 45.2226 45.2222ZM38.2773 42.4449H43.832V34.1129H38.2773V42.4449Z" fill="white"/>
<path d="M59.1093 45.2222H50.7773C50.0117 45.2222 49.3867 44.6011 49.3867 43.8316V32.7226C49.3867 31.957 50.0078 31.332 50.7773 31.332H59.1093C59.8749 31.332 60.4999 31.9531 60.4999 32.7226V43.8316C60.4999 44.6012 59.8788 45.2222 59.1093 45.2222ZM52.1679 42.4449H57.7226V34.1129H52.1679V42.4449Z" fill="white"/>
<path d="M45.2226 63.2769H36.8906C36.125 63.2769 35.5 62.6558 35.5 61.8863V50.7773C35.5 50.0117 36.1211 49.3867 36.8906 49.3867H45.2226C45.9882 49.3867 46.6132 50.0078 46.6132 50.7773V61.8863C46.6093 62.6558 45.9882 63.2769 45.2226 63.2769ZM38.2773 60.4996H43.832V52.1676H38.2773V60.4996Z" fill="white"/>
<path d="M59.1093 63.2769H50.7773C50.0117 63.2769 49.3867 62.6558 49.3867 61.8863V50.7773C49.3867 50.0117 50.0078 49.3867 50.7773 49.3867H59.1093C59.8749 49.3867 60.4999 50.0078 60.4999 50.7773V61.8863C60.4999 62.6558 59.8788 63.2769 59.1093 63.2769ZM52.1679 60.4996H57.7226V52.1676H52.1679V60.4996Z" fill="white"/>
<path d="M93.832 95.2226H2.16404C1.39842 95.2226 0.773438 94.6015 0.773438 93.832V88.2773C0.773438 87.5117 1.39453 86.8867 2.16404 86.8867H93.832C94.5977 86.8867 95.2226 87.5078 95.2226 88.2773V93.832C95.2226 94.6015 94.6015 95.2226 93.832 95.2226ZM3.55504 92.4453H92.446V89.668H3.55504V92.4453Z" fill="white"/>
<path d="M60.5 27.1679H35.5C34.7344 27.1679 34.1094 26.5468 34.1094 25.7773C34.1094 25.0117 34.7305 24.3867 35.5 24.3867H60.5C61.2656 24.3867 61.8906 25.0078 61.8906 25.7773C61.8906 26.5468 61.2656 27.1679 60.5 27.1679Z" fill="white"/>
<path d="M60.5 45.2226H35.5C34.7344 45.2226 34.1094 44.6015 34.1094 43.832C34.1094 43.0664 34.7305 42.4414 35.5 42.4414H60.5C61.2656 42.4414 61.8906 43.0625 61.8906 43.832C61.8906 44.6015 61.2656 45.2226 60.5 45.2226Z" fill="white"/>
<path d="M60.5 63.2773H35.5C34.7344 63.2773 34.1094 62.6562 34.1094 61.8867C34.1094 61.1211 34.7305 60.4961 35.5 60.4961H60.5C61.2656 60.4961 61.8906 61.1172 61.8906 61.8867C61.8906 62.6562 61.2656 63.2773 60.5 63.2773Z" fill="white"/>
<path d="M82.7227 89.6676H66.0547C65.289 89.6676 64.6641 89.0465 64.6641 88.277L64.668 23C64.668 22.2344 65.2891 21.6094 66.0586 21.6094H82.7266C83.4922 21.6094 84.1172 22.2305 84.1172 23V88.277C84.1094 89.0465 83.4883 89.6676 82.7227 89.6676ZM67.4457 86.8903H81.3367L81.3328 24.3903H67.4418L67.4457 86.8903Z" fill="white"/>
<path d="M71.6094 34.1093C70.8437 34.1093 70.2188 33.4882 70.2188 32.7187L70.2227 31.332C70.2227 30.5664 70.8437 29.9414 71.6133 29.9414C72.3789 29.9414 73.0039 30.5625 73.0039 31.332V32.7226C73 33.4882 72.3789 34.1093 71.6094 34.1093Z" fill="white"/>
<path d="M77.1679 34.1093C76.4023 34.1093 75.7773 33.4882 75.7773 32.7187V31.332C75.7773 30.5664 76.3984 29.9414 77.1679 29.9414C77.9336 29.9414 78.5585 30.5625 78.5585 31.332V32.7226C78.5546 33.4882 77.9335 34.1093 77.1679 34.1093Z" fill="white"/>
<path d="M71.6094 43.832C70.8437 43.832 70.2188 43.2109 70.2188 42.4414V41.0508C70.2188 40.2851 70.8398 39.6602 71.6094 39.6602C72.375 39.6602 73 40.2812 73 41.0508V42.4414C73 43.2109 72.3789 43.832 71.6094 43.832Z" fill="white"/>
<path d="M77.1679 43.832C76.4023 43.832 75.7773 43.2109 75.7773 42.4414V41.0508C75.7773 40.2851 76.3984 39.6602 77.1679 39.6602C77.9336 39.6602 78.5585 40.2812 78.5585 41.0508V42.4414C78.5546 43.2109 77.9335 43.832 77.1679 43.832Z" fill="white"/>
<path d="M71.6094 53.5546C70.8437 53.5546 70.2188 52.9335 70.2188 52.164L70.2227 50.7773C70.2227 50.0117 70.8437 49.3867 71.6133 49.3867C72.3789 49.3867 73.0039 50.0078 73.0039 50.7773V52.1679C73 52.9335 72.3789 53.5546 71.6094 53.5546Z" fill="white"/>
<path d="M77.1679 53.5546C76.4023 53.5546 75.7773 52.9335 75.7773 52.164V50.7773C75.7773 50.0117 76.3984 49.3867 77.1679 49.3867C77.9336 49.3867 78.5585 50.0078 78.5585 50.7773V52.1679C78.5546 52.9335 77.9335 53.5546 77.1679 53.5546Z" fill="white"/>
<path d="M71.6094 63.2773C70.8437 63.2773 70.2188 62.6562 70.2188 61.8867V60.4961C70.2188 59.7304 70.8398 59.1055 71.6094 59.1055C72.375 59.1055 73 59.7266 73 60.4961V61.8867C73 62.6562 72.3789 63.2773 71.6094 63.2773Z" fill="white"/>
<path d="M77.1679 63.2773C76.4023 63.2773 75.7773 62.6562 75.7773 61.8867V60.4961C75.7773 59.7304 76.3984 59.1055 77.1679 59.1055C77.9336 59.1055 78.5585 59.7266 78.5585 60.4961V61.8867C78.5546 62.6562 77.9335 63.2773 77.1679 63.2773Z" fill="white"/>
<path d="M71.6094 72.9999C70.8437 72.9999 70.2188 72.3788 70.2188 71.6093L70.2227 70.2226C70.2227 69.457 70.8437 68.832 71.6133 68.832C72.3789 68.832 73.0039 69.4531 73.0039 70.2226V71.6132C73 72.3788 72.3789 72.9999 71.6094 72.9999Z" fill="white"/>
<path d="M77.1679 72.9999C76.4023 72.9999 75.7773 72.3788 75.7773 71.6093V70.2226C75.7773 69.457 76.3984 68.832 77.1679 68.832C77.9336 68.832 78.5585 69.4531 78.5585 70.2226V71.6132C78.5546 72.3788 77.9335 72.9999 77.1679 72.9999Z" fill="white"/>
<path d="M71.6094 82.7226C70.8437 82.7226 70.2188 82.1015 70.2188 81.332V79.9414C70.2188 79.1758 70.8398 78.5508 71.6094 78.5508C72.375 78.5508 73 79.1719 73 79.9414V81.332C73 82.1015 72.3789 82.7226 71.6094 82.7226Z" fill="white"/>
<path d="M77.1679 82.7226C76.4023 82.7226 75.7773 82.1015 75.7773 81.332V79.9414C75.7773 79.1758 76.3984 78.5508 77.1679 78.5508C77.9336 78.5508 78.5585 79.1719 78.5585 79.9414V81.332C78.5546 82.1015 77.9335 82.7226 77.1679 82.7226Z" fill="white"/>
<path d="M85.4997 24.3906H66.0547C65.289 24.3906 64.6641 23.7695 64.6641 23V17.4453C64.6641 16.6797 65.2852 16.0547 66.0547 16.0547H85.4997C86.2653 16.0547 86.8903 16.6758 86.8903 17.4453V23C86.8903 23.7656 86.2653 24.3906 85.4997 24.3906ZM67.4447 21.6094H84.1127V18.8321H67.4447V21.6094Z" fill="white"/>
<path d="M29.9453 89.6676H13.2773C12.5117 89.6676 11.8867 89.0465 11.8867 88.277L11.8906 23C11.8906 22.2344 12.5117 21.6094 13.2812 21.6094H29.9492C30.7148 21.6094 31.3398 22.2305 31.3398 23V88.277C31.332 89.0465 30.7109 89.6676 29.9453 89.6676ZM14.6683 86.8903H28.5593L28.5554 24.3903H14.6684L14.6683 86.8903Z" fill="white"/>
<path d="M24.3906 34.1093C23.625 34.1093 23 33.4882 23 32.7187V31.332C23 30.5664 23.6211 29.9414 24.3906 29.9414C25.1562 29.9414 25.7812 30.5625 25.7812 31.332V32.7226C25.7773 33.4882 25.1562 34.1093 24.3906 34.1093Z" fill="white"/>
<path d="M18.832 34.1093C18.0664 34.1093 17.4414 33.4882 17.4414 32.7187L17.4453 31.332C17.4453 30.5664 18.0664 29.9414 18.8359 29.9414C19.6015 29.9414 20.2265 30.5625 20.2265 31.332V32.7226C20.2226 33.4882 19.6015 34.1093 18.832 34.1093Z" fill="white"/>
<path d="M24.3906 43.832C23.625 43.832 23 43.2109 23 42.4414V41.0508C23 40.2851 23.6211 39.6602 24.3906 39.6602C25.1562 39.6602 25.7812 40.2812 25.7812 41.0508V42.4414C25.7773 43.2109 25.1562 43.832 24.3906 43.832Z" fill="white"/>
<path d="M18.832 43.832C18.0664 43.832 17.4414 43.2109 17.4414 42.4414V41.0508C17.4414 40.2851 18.0625 39.6602 18.832 39.6602C19.5976 39.6602 20.2226 40.2812 20.2226 41.0508V42.4414C20.2226 43.2109 19.6015 43.832 18.832 43.832Z" fill="white"/>
<path d="M24.3906 53.5546C23.625 53.5546 23 52.9335 23 52.164V50.7773C23 50.0117 23.6211 49.3867 24.3906 49.3867C25.1562 49.3867 25.7812 50.0078 25.7812 50.7773V52.1679C25.7773 52.9335 25.1562 53.5546 24.3906 53.5546Z" fill="white"/>
<path d="M18.832 53.5546C18.0664 53.5546 17.4414 52.9335 17.4414 52.164L17.4453 50.7773C17.4453 50.0117 18.0664 49.3867 18.8359 49.3867C19.6015 49.3867 20.2265 50.0078 20.2265 50.7773V52.1679C20.2226 52.9335 19.6015 53.5546 18.832 53.5546Z" fill="white"/>
<path d="M24.3906 63.2773C23.625 63.2773 23 62.6562 23 61.8867V60.4961C23 59.7304 23.6211 59.1055 24.3906 59.1055C25.1562 59.1055 25.7812 59.7266 25.7812 60.4961V61.8867C25.7773 62.6562 25.1562 63.2773 24.3906 63.2773Z" fill="white"/>
<path d="M18.832 63.2773C18.0664 63.2773 17.4414 62.6562 17.4414 61.8867V60.4961C17.4414 59.7304 18.0625 59.1055 18.832 59.1055C19.5976 59.1055 20.2226 59.7266 20.2226 60.4961V61.8867C20.2226 62.6562 19.6015 63.2773 18.832 63.2773Z" fill="white"/>
<path d="M24.3906 72.9999C23.625 72.9999 23 72.3788 23 71.6093V70.2226C23 69.457 23.6211 68.832 24.3906 68.832C25.1562 68.832 25.7812 69.4531 25.7812 70.2226V71.6132C25.7773 72.3788 25.1562 72.9999 24.3906 72.9999Z" fill="white"/>
<path d="M18.832 72.9999C18.0664 72.9999 17.4414 72.3788 17.4414 71.6093L17.4453 70.2226C17.4453 69.457 18.0664 68.832 18.8359 68.832C19.6015 68.832 20.2265 69.4531 20.2265 70.2226V71.6132C20.2226 72.3788 19.6015 72.9999 18.832 72.9999Z" fill="white"/>
<path d="M24.3906 82.7226C23.625 82.7226 23 82.1015 23 81.332V79.9414C23 79.1758 23.6211 78.5508 24.3906 78.5508C25.1562 78.5508 25.7812 79.1719 25.7812 79.9414V81.332C25.7773 82.1015 25.1562 82.7226 24.3906 82.7226Z" fill="white"/>
<path d="M18.832 82.7226C18.0664 82.7226 17.4414 82.1015 17.4414 81.332V79.9414C17.4414 79.1758 18.0625 78.5508 18.832 78.5508C19.5976 78.5508 20.2226 79.1719 20.2226 79.9414V81.332C20.2226 82.1015 19.6015 82.7226 18.832 82.7226Z" fill="white"/>
<path d="M29.945 24.3906H10.5C9.73436 24.3906 9.10938 23.7695 9.10938 23V17.4453C9.10938 16.6797 9.73047 16.0547 10.5 16.0547H29.945C30.7106 16.0547 31.3356 16.6758 31.3356 17.4453V23C31.3317 23.7656 30.7106 24.3906 29.945 24.3906ZM11.89 21.6094H28.558V18.8321H11.89V21.6094Z" fill="white"/>
</svg>
