<svg width="52" height="75" viewBox="0 0 52 75" fill="none" xmlns="http://www.w3.org/2000/svg">
<path d="M9.65947 46.02C14.3275 49.8794 17.097 55.5395 17.4329 61.684H16.8704C16.0071 61.684 15.3079 62.3832 15.3079 63.2465V68.3324C15.3079 69.1956 16.0071 69.8949 16.8704 69.8949H19.972L19.9759 73.1879C19.9759 74.0511 20.6751 74.7504 21.5384 74.7504H30.2181C31.0814 74.7504 31.7806 74.0511 31.7806 73.1879V69.8949H34.8822C35.7455 69.8949 36.4447 69.1956 36.4447 68.3324V63.2465C36.4447 62.3832 35.7455 61.684 34.8822 61.684H34.3236C34.683 55.6762 37.597 49.899 42.4955 45.68C48.5463 40.4691 51.7494 32.899 51.2846 24.914C50.5424 12.098 39.9176 1.59397 27.0896 0.991967C20.074 0.687277 13.3866 3.15607 8.30859 8.00367C3.22269 12.8553 0.425785 19.3947 0.425785 26.4177C0.421879 34.0232 3.78837 41.168 9.65947 46.02ZM28.6515 71.625H23.0968V69.8945H28.6515V71.625ZM33.3156 66.7695H18.4326V64.8086H33.3156V66.7695ZM27.5304 41.9885C28.0616 42.0275 28.5929 42.051 29.1163 42.0549C28.4835 46.6057 27.8351 52.1289 27.3585 56.3789C27.6007 52.2109 27.7882 46.8248 27.5304 41.9885ZM10.4644 10.2695C14.9214 6.01557 20.7654 3.83197 26.9444 4.11717C38.1944 4.64061 47.5144 13.8555 48.1634 25.0942C48.5696 32.0981 45.7572 38.7392 40.4525 43.3092C34.8587 48.1295 31.5189 54.7662 31.1556 61.6842H29.9173C30.3274 57.8795 31.3587 48.5202 32.3079 41.8012C33.5188 41.5902 34.6399 41.2543 35.6087 40.7856C37.4564 39.8949 38.6751 38.5551 39.1282 36.9184C39.679 34.9418 39.2024 32.9809 37.8587 31.6762C36.7337 30.5785 35.2103 30.184 33.7884 30.6254C32.7415 30.9457 30.8782 32.0238 30.1517 35.5863C29.972 36.473 29.7767 37.6136 29.5736 38.9183C28.8236 38.9261 28.0618 38.8987 27.2883 38.8167C26.9915 36.0003 26.4915 33.5628 25.6907 31.9339C24.0813 28.6605 21.9015 28.6527 21.05 28.8011C19.0383 29.1488 17.3625 31.3089 17.0578 33.9417C16.7297 36.7972 18.1516 39.2581 20.7687 40.3636C21.9249 40.8519 23.1437 41.2386 24.382 41.512C24.7805 48.2542 24.2688 56.844 23.8352 61.684H20.593C20.257 54.5981 17.0383 48.067 11.6477 43.61C6.49928 39.3522 3.54608 33.09 3.54608 26.419C3.54608 20.2628 6.00308 14.528 10.4641 10.271L10.4644 10.2695ZM32.8044 38.4995C32.9489 37.6167 33.0856 36.8433 33.2145 36.2065C33.5583 34.5268 34.2106 33.7612 34.7106 33.6088C34.7888 33.5814 34.8669 33.5736 34.9411 33.5736C35.2849 33.5736 35.5622 33.8002 35.6794 33.9134C36.1911 34.4134 36.3552 35.2221 36.1169 36.0815C35.9059 36.8393 35.277 37.4759 34.2497 37.972C33.8122 38.183 33.3278 38.3588 32.8044 38.4995ZM24.0896 38.2143C23.363 38.0112 22.6599 37.769 21.988 37.4877C20.1677 36.7182 20.0661 35.1596 20.1638 34.3002C20.32 32.9486 21.1091 31.9643 21.5818 31.8822C21.5935 31.8822 21.6091 31.8783 21.6208 31.8783C21.8982 31.8783 22.3943 32.3119 22.8864 33.3119C23.445 34.4486 23.8318 36.1597 24.0896 38.2143Z" fill="#FFE066"/>
</svg>
