<svg width="80" height="72" viewBox="0 0 80 72" fill="none" xmlns="http://www.w3.org/2000/svg">
<path d="M74.1723 28.7971L68.1957 7.2891C67.016 3.0313 63.1098 0.0625 58.6957 0.0625H21.3047C16.8906 0.0625 12.9844 3.0313 11.8047 7.2813L5.8281 28.7893C2.7578 31.0705 0.9375 34.6565 0.9375 38.5081V67.9141C0.9375 70.1329 2.7422 71.9375 4.9609 71.9375H15.6639C17.8827 71.9375 19.6873 70.1328 19.6873 67.9141V59.4375H60.3123V67.9141C60.3123 70.1329 62.117 71.9375 64.3357 71.9375H75.0387C77.2575 71.9375 79.0621 70.1328 79.0621 67.9141V38.5081C79.0621 34.6565 77.2426 31.0705 74.1723 28.7971ZM14.8203 8.1171C15.625 5.2187 18.2891 3.1874 21.3047 3.1874H58.6877C61.7033 3.1874 64.3674 5.2186 65.1799 8.1171L70.758 28.1871H9.242L14.8203 8.1171ZM4.0623 38.5081C4.0623 35.6487 5.4217 33.0003 7.7107 31.3128H72.2967C74.5779 33.0003 75.9451 35.6487 75.9451 38.5081V56.3131H4.0621L4.0623 38.5081ZM16.5623 67.9141C16.5623 68.4063 16.1561 68.8125 15.6639 68.8125H4.96086C4.46867 68.8125 4.06242 68.4063 4.06242 67.9141V59.4375H16.5624L16.5623 67.9141ZM75.9373 67.9141C75.9373 68.4063 75.531 68.8125 75.0389 68.8125H64.3359C63.8437 68.8125 63.4374 68.4063 63.4374 67.9141V59.4375H75.9374L75.9373 67.9141ZM24.3753 43.8121C24.3753 39.9371 21.2191 36.7809 17.3441 36.7809C13.4691 36.7809 10.3129 39.9371 10.3129 43.8121C10.3129 47.6871 13.4691 50.8433 17.3441 50.8433C21.2191 50.8433 24.3753 47.6871 24.3753 43.8121ZM17.3441 47.7183C15.1879 47.7183 13.4379 45.9683 13.4379 43.8121C13.4379 41.6559 15.1879 39.9059 17.3441 39.9059C19.5003 39.9059 21.2503 41.6559 21.2503 43.8121C21.2503 45.9683 19.5003 47.7183 17.3441 47.7183ZM62.6561 50.8433C66.5311 50.8433 69.6873 47.6871 69.6873 43.8121C69.6873 39.9371 66.5311 36.7809 62.6561 36.7809C58.7811 36.7809 55.6249 39.9371 55.6249 43.8121C55.6249 47.6871 58.7811 50.8433 62.6561 50.8433ZM62.6561 39.9053C64.8123 39.9053 66.5623 41.6553 66.5623 43.8115C66.5623 45.9677 64.8123 47.7177 62.6561 47.7177C60.4999 47.7177 58.7499 45.9677 58.7499 43.8115C58.7499 41.6553 60.4999 39.9053 62.6561 39.9053ZM30.6251 43.8115C30.6251 42.9521 31.3282 42.249 32.1876 42.249H47.8126C48.672 42.249 49.3751 42.9521 49.3751 43.8115C49.3751 44.6709 48.672 45.374 47.8126 45.374H32.1876C31.3282 45.374 30.6251 44.6709 30.6251 43.8115Z" fill="white"/>
</svg>
