<svg width="99" height="67" viewBox="0 0 99 67" fill="none" xmlns="http://www.w3.org/2000/svg">
<path d="M70.3994 0.0017294C60.2379 0.0017294 49.9142 4.65589 42.2515 12.5935C42.0957 12.7533 41.9729 12.9423 41.8903 13.1497C41.8077 13.3571 41.767 13.5788 41.7703 13.802C41.7737 14.0252 41.8212 14.2456 41.91 14.4504C41.9988 14.6552 42.1273 14.8404 42.2879 14.9954C42.4487 15.1503 42.6385 15.272 42.8464 15.3533C43.0543 15.4346 43.2763 15.474 43.4995 15.4693C43.7227 15.4645 43.9428 15.4157 44.1471 15.3256C44.3514 15.2355 44.5358 15.1058 44.6898 14.9442C51.7534 7.62713 61.2811 3.38795 70.3994 3.38795C78.6187 3.38795 85.2951 6.70515 89.6046 12.0295C93.9141 17.3538 95.8737 24.719 94.3455 33.0245C91.2893 49.6355 75.1959 63.2832 58.7571 63.2832C49.6388 63.2832 41.9671 59.1315 37.7256 52.0313C37.6118 51.8396 37.4613 51.6723 37.2828 51.5389C37.1042 51.4056 36.901 51.3088 36.685 51.254C36.4689 51.1993 36.2442 51.1878 36.0237 51.2201C35.8031 51.2524 35.5911 51.3279 35.3998 51.4423C35.2082 51.5561 35.0409 51.7066 34.9076 51.8852C34.7742 52.0637 34.6774 52.2669 34.6227 52.4829C34.568 52.699 34.5564 52.9237 34.5887 53.1442C34.621 53.3648 34.6966 53.5768 34.8109 53.768C39.6823 61.9227 48.5956 66.6741 58.7571 66.6741C77.039 66.6741 94.3091 51.9776 97.6837 33.6365C99.371 24.4659 97.2048 16.0204 92.2447 9.89214C87.2846 3.76388 79.5403 0.0017294 70.3994 0.0017294ZM67.5674 11.8524C67.1762 11.8571 66.7986 11.9971 66.4989 12.2485C66.1991 12.5 65.9957 12.8475 65.9231 13.232L61.7843 35.7159C61.7181 36.0732 61.7685 36.4424 61.9282 36.7688C62.0878 37.0953 62.3483 37.3618 62.671 37.5289L73.85 43.3186C74.2482 43.523 74.7111 43.5616 75.1376 43.4258C75.5641 43.2901 75.9195 42.991 76.1262 42.594C76.2295 42.3962 76.2927 42.18 76.3122 41.9577C76.3317 41.7354 76.307 41.5115 76.2397 41.2987C76.1724 41.086 76.0637 40.8887 75.9199 40.7181C75.7761 40.5474 75.6 40.4069 75.4017 40.3046L65.3475 35.1038L69.2481 13.844C69.3265 13.4052 69.2288 12.9531 68.9761 12.5859C68.7234 12.2186 68.3361 11.9658 67.8982 11.8822C67.7893 11.8607 67.6785 11.8522 67.5674 11.8524ZM6.19003 19.4485C5.96647 19.4476 5.74494 19.491 5.53823 19.5761C5.33151 19.6613 5.1437 19.7865 4.98562 19.9446C4.82754 20.1027 4.70231 20.2905 4.61716 20.4972C4.53201 20.7039 4.48863 20.9255 4.48951 21.149C4.49037 21.3715 4.53505 21.5916 4.62098 21.7967C4.7069 22.0019 4.83241 22.1882 4.99031 22.3449C5.14822 22.5015 5.33545 22.6256 5.54129 22.7099C5.74714 22.7942 5.96758 22.8372 6.19003 22.8363H35.648C36.0955 22.8354 36.5245 22.6575 36.8413 22.3413C37.1581 22.0252 37.3368 21.5965 37.3386 21.149C37.3395 20.9263 37.2964 20.7056 37.2119 20.4995C37.1273 20.2934 37.003 20.1061 36.846 19.9481C36.6889 19.7902 36.5023 19.6647 36.2967 19.579C36.0912 19.4933 35.8707 19.4489 35.648 19.4485H6.19003ZM14.5537 31.6399C14.3301 31.6391 14.1086 31.6825 13.9019 31.7676C13.6952 31.8527 13.5073 31.978 13.3493 32.136C13.1912 32.2941 13.066 32.4819 12.9808 32.6886C12.8957 32.8953 12.8523 33.1169 12.8531 33.3404C12.854 33.5629 12.8987 33.783 12.9846 33.9882C13.0705 34.1934 13.196 34.3796 13.3539 34.5363C13.5118 34.693 13.6991 34.817 13.9049 34.9014C14.1108 34.9857 14.3312 35.0286 14.5537 35.0278H44.0149C44.4619 35.026 44.8901 34.8477 45.2061 34.5316C45.5222 34.2156 45.7005 33.7874 45.7022 33.3404C45.704 32.8912 45.5272 32.4596 45.2107 32.1407C44.8943 31.8218 44.4642 31.6417 44.0149 31.6399H14.5537ZM1.70053 43.8313C1.47697 43.8305 1.25545 43.8739 1.04874 43.959C0.842022 44.0442 0.654209 44.1694 0.496126 44.3275C0.338043 44.4856 0.212817 44.6734 0.127669 44.8801C0.042521 45.0868 -0.000864894 45.3083 1.30629e-05 45.5319C0.000879844 45.7543 0.0455529 45.9744 0.131482 46.1796C0.21741 46.3848 0.342912 46.571 0.500821 46.7277C0.658729 46.8844 0.845952 47.0084 1.0518 47.0928C1.25765 47.1771 1.47809 47.22 1.70053 47.2192H31.1618C31.6088 47.2174 32.0369 47.0391 32.353 46.7231C32.669 46.407 32.8473 45.9788 32.8491 45.5319C32.85 45.3094 32.807 45.089 32.7227 44.8831C32.6384 44.6773 32.5143 44.4901 32.3576 44.3322C32.201 44.1742 32.0147 44.0487 31.8095 43.9628C31.6043 43.8769 31.3842 43.8322 31.1618 43.8313H1.70053Z" fill="white"/>
</svg>
