<svg width="90" height="87" viewBox="0 0 90 87" fill="none" xmlns="http://www.w3.org/2000/svg">
<path fill-rule="evenodd" clip-rule="evenodd" d="M2.733 45.6958H87.266C87.45 45.6958 87.604 45.5418 87.604 45.3578V42.6448C87.604 42.4618 87.449 42.3068 87.266 42.3068H2.733C2.55 42.3068 2.395 42.4608 2.395 42.6448V45.3578C2.395 45.5418 2.55 45.6958 2.733 45.6958ZM58.682 19.9478H78.897C79.286 19.9478 79.609 19.6248 79.609 19.2358V18.0198C79.609 17.6308 79.286 17.3078 78.897 17.3078H58.682C58.293 17.3078 57.97 17.6308 57.97 18.0198V19.2358C57.97 19.6248 58.293 19.9478 58.682 19.9478ZM77.61 22.3428H59.97L58.036 25.9548C57.57 26.8258 57.362 27.6588 57.362 28.6558V39.9118H60.083V31.1278C60.083 30.4668 60.619 29.9298 61.281 29.9298H76.3C76.961 29.9298 77.498 30.4658 77.498 31.1278V39.9118H80.219V28.6558C80.219 27.6588 80.012 26.8258 79.545 25.9548L77.61 22.3428ZM57.409 22.0688L55.93 24.8308C55.219 26.1578 54.966 27.3218 54.966 28.8088C52.521 29.9458 50.499 29.5808 48.071 28.6348C49.477 26.5748 50.46 24.0578 50.899 21.2658C51 20.6148 50.554 20.0048 49.902 19.9048C49.25 19.8048 48.641 20.2498 48.541 20.9018C47.808 25.6018 45.042 30.3418 40.258 31.6228C35.597 32.8718 30.795 30.2308 27.719 26.4688C27.3 25.9568 26.546 25.8818 26.035 26.3008C25.523 26.7198 25.448 27.4738 25.867 27.9848C27.638 30.1508 29.756 31.8328 32.013 32.9178C31.178 33.9458 30.191 34.9638 29.094 35.6238C27.892 36.3468 26.593 36.6318 25.129 36.5858L23.024 25.1418C23.574 23.6758 24.471 22.3798 25.629 21.4348C26.758 20.5138 28.137 19.9248 29.684 19.8408C30.343 19.8068 30.85 19.2458 30.816 18.5868C30.782 17.9278 30.221 17.4208 29.562 17.4548C26.594 17.6108 24.056 19.1568 22.344 21.4438L21.997 19.5568C21.697 17.9268 20.76 16.5978 19.455 15.7008C20.007 12.7368 21.936 10.1488 24.893 9.35581C25.466 9.20581 25.929 9.07681 26.097 8.40381C26.458 6.95981 27.141 5.66481 28.083 4.64881C29.986 2.59781 32.788 1.88281 35.445 2.75881C36.797 3.20481 38.051 4.03081 39.078 5.15081C39.491 5.61981 40.106 5.74581 40.633 5.42381C40.91 5.25481 41.2 5.10481 41.501 4.97581C45.808 3.13081 50.435 6.05681 52.068 10.4008C52.217 10.7958 52.546 11.0798 52.962 11.1618C55.176 11.5998 57.1 13.0258 58.385 14.9218C57.647 14.9918 56.982 15.3228 56.485 15.8198C55.442 16.8628 55.573 17.9108 55.573 19.2318C55.573 20.4738 56.312 21.5708 57.408 22.0658L57.409 22.0688ZM61.142 14.9108H78.897C80.608 14.9108 82.004 16.3068 82.004 18.0178C82.004 19.3378 82.135 20.3868 81.092 21.4298C80.827 21.6948 80.515 21.9118 80.169 22.0678L81.648 24.8298C82.307 26.0598 82.612 27.2678 82.612 28.6538V39.9098H87.264C88.77 39.9098 89.997 41.1378 89.997 42.6428V45.3558C89.997 46.8618 88.769 48.0888 87.264 48.0888H84.727L79.303 80.1118C78.637 84.0418 75.29 86.8698 71.311 86.8698H18.686C14.707 86.8698 11.359 84.0428 10.694 80.1118L5.27 48.0888H2.733C1.227 48.0888 0 46.8608 0 45.3558V42.6428C0 41.1368 1.228 39.9098 2.733 39.9098H7.071C5.3 34.9318 3.53 29.9538 1.76 24.9768C0.496 21.4228 2.929 17.6278 6.473 16.6778L7.631 16.3678C6.143 15.0168 4.205 14.0148 2.316 13.3088C1.698 13.0788 1.384 12.3918 1.614 11.7738C1.844 11.1558 2.531 10.8418 3.149 11.0718C5.009 11.7668 6.879 12.7128 8.451 13.9418C7.913 12.1238 7.177 9.89481 6.413 8.56081C6.085 7.98681 6.284 7.25581 6.857 6.92781C7.431 6.59981 8.162 6.79881 8.49 7.37181C9.383 8.93081 10.191 11.3738 10.801 13.4698C11.297 11.8148 12.053 10.3128 13.179 9.16781C13.642 8.69781 14.398 8.69081 14.868 9.15381C15.338 9.61681 15.345 10.3728 14.882 10.8428C13.849 11.8948 13.239 13.4208 12.874 14.9618L14.295 14.6058C15.279 14.4248 16.282 14.4668 17.225 14.7018C18.058 11.1878 20.473 8.19881 23.972 7.13281C26.288 -0.192194 34.622 -2.36819 40.234 2.92981C45.639 0.358807 51.669 3.52981 54.064 8.96481C57.132 9.78581 59.673 12.0338 61.142 14.9108ZM75.101 39.9108H62.477V32.3238H75.101V39.9108ZM54.966 39.9108V31.3918C54.761 31.4638 54.558 31.5278 54.356 31.5838C53.205 32.4418 52.44 33.6298 51.96 34.9948C51.438 36.4808 51.248 38.1808 51.267 39.9118H54.965L54.966 39.9108ZM28.859 15.4958C30.629 11.4128 35.084 9.71581 39.029 11.8438C39.61 12.1568 40.335 11.9388 40.648 11.3568C40.961 10.7748 40.743 10.0508 40.161 9.73781C34.988 6.94781 28.992 9.17881 26.669 14.5508C26.408 15.1558 26.687 15.8568 27.291 16.1178C27.896 16.3788 28.598 16.0998 28.859 15.4958ZM44.637 32.1638L45.336 34.7728C45.749 33.3608 46.368 32.1388 47.152 30.8448C46.934 30.7588 46.714 30.6698 46.492 30.5768C45.917 31.1688 45.297 31.7008 44.638 32.1648L44.637 32.1638ZM44.236 39.9108L42.484 33.3738C41.48 33.8088 40.426 34.0988 39.339 34.2338L40.86 39.9108H44.236ZM37.564 36.8508L36.875 34.2798C36.028 34.2088 35.182 34.0508 34.344 33.8108C34.212 33.9838 34.079 34.1528 33.947 34.3178C35.298 35.0548 36.484 35.8188 37.564 36.8508ZM48.877 39.9108C48.849 37.1018 49.322 34.1648 50.866 31.8498C50.407 31.7978 49.95 31.7138 49.489 31.6018C47.726 34.4128 47.003 36.3828 47.236 39.9108H48.877ZM31.233 37.0528C32.623 37.7248 33.82 38.7278 34.857 39.9108H37.085C35.771 38.1498 34.275 37.1898 32.291 36.1458C31.948 36.4738 31.596 36.7768 31.233 37.0528ZM31.363 39.9108C31.209 39.7988 31.052 39.6928 30.893 39.5928C30.071 39.0788 29.168 38.7308 28.179 38.6138C27.376 38.8468 26.513 38.9728 25.57 38.9828L25.741 39.9108H31.363ZM54.357 18.1438C53.502 15.6548 51.539 14.0728 49.174 13.4148C46.951 12.7968 44.407 13.0098 42.443 14.0028C41.854 14.2998 41.617 15.0188 41.914 15.6078C42.211 16.1968 42.93 16.4338 43.519 16.1368C43.735 16.0278 43.975 15.9268 44.237 15.8378C47.049 14.8718 50.974 15.6608 52.092 18.9218C52.306 19.5468 52.987 19.8798 53.613 19.6658C54.238 19.4518 54.571 18.7698 54.357 18.1438ZM19.649 19.9888C19.22 17.6558 16.588 16.4448 14.387 17.0348L7.091 18.9898C4.856 19.5888 3.227 21.9658 4.015 24.1818L5.723 28.9828L15.21 26.4408C15.848 26.2708 16.504 26.6498 16.674 27.2878C16.844 27.9258 16.465 28.5818 15.827 28.7518L6.526 31.2438L8.315 36.2738L15.172 34.4368C15.81 34.2668 16.466 34.6458 16.636 35.2838C16.806 35.9218 16.427 36.5778 15.789 36.7478L9.119 38.5348L9.608 39.9098H23.312C22.091 33.2688 20.869 26.6288 19.648 19.9878L19.649 19.9888ZM43.802 54.7748V65.6258C43.802 66.2868 44.338 66.8238 45 66.8238C45.662 66.8238 46.198 66.2878 46.198 65.6258V54.7748C46.198 54.1138 45.662 53.5768 45 53.5768C44.338 53.5768 43.802 54.1128 43.802 54.7748ZM43.802 69.8628V77.7898C43.802 78.4508 44.338 78.9878 45 78.9878C45.662 78.9878 46.198 78.4518 46.198 77.7898V69.8628C46.198 69.2018 45.662 68.6648 45 68.6648C44.338 68.6648 43.802 69.2008 43.802 69.8628ZM58.363 54.5778L54.465 77.5928C54.357 78.2438 54.796 78.8598 55.448 78.9678C56.099 79.0768 56.715 78.6368 56.823 77.9858L60.721 54.9708C60.829 54.3198 60.39 53.7038 59.738 53.5958C59.087 53.4878 58.471 53.9268 58.363 54.5788V54.5778ZM29.278 54.9708L33.176 77.9858C33.284 78.6368 33.9 79.0768 34.551 78.9678C35.202 78.8598 35.642 78.2438 35.534 77.5928L31.636 54.5778C31.527 53.9268 30.912 53.4868 30.261 53.5948C29.61 53.7028 29.17 54.3198 29.278 54.9708ZM69.741 54.5778L67.478 67.9398C67.37 68.5908 67.809 69.2068 68.461 69.3148C69.112 69.4228 69.728 68.9838 69.836 68.3318L72.099 54.9698C72.207 54.3188 71.768 53.7028 71.116 53.5948C70.465 53.4868 69.849 53.9258 69.741 54.5778ZM66.76 72.1768L65.843 77.5928C65.735 78.2438 66.174 78.8598 66.826 78.9678C67.477 79.0768 68.093 78.6368 68.201 77.9858L69.118 72.5698C69.226 71.9188 68.787 71.3028 68.136 71.1948C67.485 71.0858 66.868 71.5258 66.76 72.1768ZM17.899 54.9708L19.031 61.6528C19.139 62.3038 19.755 62.7438 20.406 62.6358C21.057 62.5268 21.497 61.9118 21.388 61.2608L20.256 54.5788C20.148 53.9278 19.532 53.4878 18.881 53.5958C18.23 53.7038 17.79 54.3198 17.899 54.9708ZM19.748 65.8898L21.797 77.9858C21.905 78.6368 22.521 79.0768 23.172 78.9678C23.823 78.8598 24.263 78.2438 24.154 77.5928L22.105 65.4968C21.997 64.8458 21.381 64.4058 20.73 64.5148C20.079 64.6228 19.639 65.2388 19.748 65.8898ZM7.694 48.0898L13.051 79.7198C13.521 82.4928 15.865 84.4748 18.685 84.4748H71.311C74.131 84.4748 76.476 82.4928 76.945 79.7198L82.302 48.0898H7.694Z" fill="white"/>
</svg>
