<svg width="68" height="68" viewBox="0 0 68 68" fill="none" xmlns="http://www.w3.org/2000/svg">
<circle cx="34" cy="34" r="32.5" stroke="white" stroke-width="3"/>
<path d="M46.4393 16.4393C45.8536 17.0251 45.8536 17.9749 46.4393 18.5607C47.0251 19.1464 47.9749 19.1464 48.5607 18.5607L46.4393 16.4393ZM55.5607 11.5607L56.6213 10.5L54.5 8.37868L53.4393 9.43934L55.5607 11.5607ZM47.5 17.5L48.5607 18.5607L55.5607 11.5607L54.5 10.5L53.4393 9.43934L46.4393 16.4393L47.5 17.5Z" fill="white"/>
<path d="M9.97409 53.6557L8.87978 54.6816L10.9316 56.8702L12.0259 55.8443L9.97409 53.6557ZM20.0259 48.3443C20.6303 47.7777 20.6609 46.8285 20.0943 46.2241C19.5277 45.6197 18.5785 45.5891 17.9741 46.1557L20.0259 48.3443ZM11 54.75L12.0259 55.8443L16.0259 52.0943L15 51L13.9741 49.9057L9.97409 53.6557L11 54.75ZM15 51L16.0259 52.0943L20.0259 48.3443L19 47.25L17.9741 46.1557L13.9741 49.9057L15 51Z" fill="white"/>
<path d="M45.9298 40.8951C46.4657 44.9433 43.8941 48.7084 39.5273 50.2623L39.5249 50.2647C38.3128 50.6952 37.0539 50.9807 35.7763 51.1141V56.1474C35.7763 57.1279 34.9783 57.9235 33.9978 57.9235C33.0173 57.9235 32.2194 57.1279 32.2194 56.1474V51.1047C31.7678 51.0556 31.3185 50.9877 30.8692 50.8988C28.2157 50.4355 25.754 49.1976 23.7976 47.3443C23.1026 46.6493 23.1026 45.5214 23.7976 44.8288C24.4926 44.1338 25.6181 44.1338 26.313 44.8288C28.646 47.1618 33.5249 48.6266 38.3334 46.9138C41.1203 45.9217 42.7186 43.7384 42.4074 41.361C42.1032 39.0537 39.6812 36.1966 33.859 35.731C30.5199 35.4665 27.656 34.472 25.5755 32.8551L25.5778 32.8527C23.6824 31.4487 22.4235 29.3521 22.0702 27.0214C21.5343 22.9732 24.1059 19.2082 28.4727 17.6518C29.6871 17.2213 30.9438 16.9311 32.2237 16.7931V11.7784C32.2237 10.7956 33.0193 10 34.0022 10C34.9826 10 35.7782 10.7956 35.7782 11.7784V16.8024C38.8085 17.0855 41.6516 18.3866 43.8491 20.4926C44.5441 21.1852 44.5441 22.3132 43.8491 23.0081C43.1541 23.7031 42.0285 23.7031 41.3336 23.0081C38.6613 20.3358 33.8641 19.5168 29.6661 21.0098C26.8791 22.0019 25.2809 24.1852 25.5921 26.5626C25.8963 28.8698 28.3182 31.727 34.1404 32.1926C37.4796 32.4594 40.3435 33.4515 42.4239 35.0685L42.4216 35.0708C44.3147 36.4724 45.5765 38.5668 45.9298 40.8951Z" fill="white"/>
</svg>
