<svg width="82" height="82" viewBox="0 0 82 82" fill="none" xmlns="http://www.w3.org/2000/svg">
<path d="M77.6489 39.328H49.8169V11.957C49.8169 9.7656 48.0317 7.9804 45.8403 7.9804H33.9103V6.4257C33.9103 5.75773 33.3673 5.2148 32.6994 5.2148H29.0705V1.5859C29.0705 0.91793 28.5275 0.375 27.8596 0.375H22.3284C21.6604 0.375 21.1175 0.91797 21.1175 1.5859V5.2148H17.4886C16.8206 5.2148 16.2777 5.75777 16.2777 6.4257V7.9804H4.34769C2.15629 7.9804 0.371094 9.7656 0.371094 11.957V80.414C0.371094 81.082 0.914064 81.6249 1.58199 81.6249H80.41C81.078 81.6249 81.6209 81.0819 81.6209 80.414V43.305C81.6209 41.1136 79.8357 39.3284 77.6443 39.3284L77.6489 39.328ZM18.6999 7.637H22.3288C22.9968 7.637 23.5397 7.09403 23.5397 6.4261V2.7972H26.653V6.4261C26.653 7.09407 27.196 7.637 27.8639 7.637H31.4928V10.7503H27.8639C27.1959 10.7503 26.653 11.2933 26.653 11.9612V15.5901H23.5397V11.9612C23.5397 11.2932 22.9967 10.7503 22.3288 10.7503H18.6999V7.637ZM37.7159 62.61V79.208H26.3059V62.61H37.7159ZM9.71189 60.1881V57.0748H40.4819V60.1881H9.71189ZM23.8879 62.61V79.208H12.4779V62.61H23.8879ZM47.3999 79.208H40.1382V62.61H41.6929C42.3609 62.61 42.9038 62.067 42.9038 61.3991V55.8679C42.9038 55.1999 42.3608 54.657 41.6929 54.657H8.50189C7.83392 54.657 7.29099 55.2 7.29099 55.8679V61.3991C7.29099 62.0671 7.83396 62.61 8.50189 62.61H10.0566V79.208H2.79489L2.7988 11.958C2.7988 11.0986 3.49802 10.4033 4.3535 10.4033H16.2835V11.958C16.2835 12.626 16.8265 13.1689 17.4944 13.1689H21.1233V16.7978C21.1233 17.4658 21.6663 18.0087 22.3342 18.0087H27.8654C28.5334 18.0087 29.0763 17.4657 29.0763 16.7978V13.1689H32.7052C33.3732 13.1689 33.9161 12.6259 33.9161 11.958V10.4033H45.8461C46.7055 10.4033 47.4008 11.1025 47.4008 11.958L47.3999 79.208ZM79.2089 79.208H49.8219V41.751H77.6539C78.5133 41.751 79.2086 42.4502 79.2086 43.3057L79.2089 79.208ZM20.9469 24.001H11.2672C10.5992 24.001 10.0563 24.544 10.0563 25.2119V32.126C10.0563 32.794 10.5993 33.3369 11.2672 33.3369H20.9469C21.6149 33.3369 22.1578 32.7939 22.1578 32.126V25.2119C22.1578 24.5439 21.6148 24.001 20.9469 24.001ZM19.736 30.9151H12.4743V26.419H19.736V30.9151ZM20.9469 39.3292H11.2672C10.5992 39.3292 10.0563 39.8722 10.0563 40.5401V47.4542C10.0563 48.1222 10.5993 48.6651 11.2672 48.6651H20.9469C21.6149 48.6651 22.1578 48.1221 22.1578 47.4542V40.5401C22.1578 39.8721 21.6148 39.3292 20.9469 39.3292ZM19.736 46.2433H12.4743V41.7472H19.736V46.2433ZM38.924 24.0013H29.2443C28.5763 24.0013 28.0334 24.5443 28.0334 25.2122V32.1263C28.0334 32.7943 28.5764 33.3372 29.2443 33.3372H38.924C39.592 33.3372 40.1349 32.7942 40.1349 32.1263V25.2122C40.1349 24.5442 39.5919 24.0013 38.924 24.0013ZM37.7131 30.9154H30.4514V26.4193H37.7131V30.9154ZM38.924 39.3295H29.2443C28.5763 39.3295 28.0334 39.8725 28.0334 40.5404V47.4545C28.0334 48.1225 28.5764 48.6654 29.2443 48.6654H38.924C39.592 48.6654 40.1349 48.1224 40.1349 47.4545V40.5404C40.1349 39.8724 39.5919 39.3295 38.924 39.3295ZM37.7131 46.2436H30.4514V41.7475H37.7131V46.2436ZM69.3501 48.1459H59.6704C59.0024 48.1459 58.4595 48.6889 58.4595 49.3568V56.2709C58.4595 56.9389 59.0025 57.4818 59.6704 57.4818H69.3501C70.0181 57.4818 70.561 56.9388 70.561 56.2709V49.3568C70.561 48.6888 70.018 48.1459 69.3501 48.1459ZM68.1392 55.06H60.8775V50.5639H68.1392V55.06ZM69.3501 63.4741H59.6704C59.0024 63.4741 58.4595 64.0171 58.4595 64.685V71.5991C58.4595 72.2671 59.0025 72.81 59.6704 72.81H69.3501C70.0181 72.81 70.561 72.267 70.561 71.5991V64.685C70.561 64.017 70.018 63.4741 69.3501 63.4741ZM68.1392 70.3882H60.8775V65.8921H68.1392V70.3882Z" fill="white"/>
</svg>
