<svg width="89" height="90" viewBox="0 0 89 90" fill="none" xmlns="http://www.w3.org/2000/svg">
<path d="M88.2275 65.57C87.7075 65.38 87.1375 65.66 86.9475 66.18L84.6775 72.57L84.1475 72.74L71.5575 34.66C71.4775 34.41 71.2975 34.2 71.0575 34.08C70.8175 33.96 70.5475 33.94 70.2975 34.02L50.7875 40.48C50.2675 40.65 49.9775 41.22 50.1575 41.74L62.7575 79.82L61.7575 80.15C61.1075 78.87 60.0875 77.83 58.7775 77.17C57.4675 76.51 56.0275 76.31 54.6075 76.56L45.3775 48.66C45.5275 48.62 45.6875 48.59 45.8375 48.53C47.1975 48 48.2675 46.97 48.8475 45.64C49.4275 44.31 49.4575 42.83 48.9175 41.48C48.3875 40.13 47.3575 39.07 46.0275 38.49L34.7875 33.6L25.5875 21.67C24.7975 20.64 23.5475 20.03 22.2575 20.03H20.7875C25.0075 18.76 28.0875 14.85 28.0875 10.23C28.0875 4.59 23.4975 0 17.8575 0C12.2175 0 7.60751 4.58 7.60751 10.23C7.60751 14.9 10.7575 18.84 15.0375 20.06C11.9975 20.38 9.60751 22.96 9.60751 26.09V70.91L1.54751 79.19C-0.522491 81.31 -0.512491 84.76 1.55751 86.88C3.67751 89.04 7.16751 89.08 9.32751 86.95L22.5975 73.93C24.0175 72.54 24.8275 70.6 24.8275 68.61V64.45L28.0975 68.28L31.0575 85.19C31.3175 86.65 32.1175 87.92 33.3275 88.77C34.2675 89.43 35.3675 89.78 36.4975 89.78C36.8175 89.78 37.1475 89.75 37.4675 89.7C40.4075 89.18 42.3975 86.47 41.9975 83.51L39.5075 64.96C39.3575 63.86 38.8775 62.84 38.1175 62.02L24.8175 47.66V38.59L27.6075 42.13C27.7075 42.26 27.8375 42.36 27.9875 42.43L41.6475 48.47C42.1875 48.71 42.7475 48.83 43.3175 48.89L52.6875 77.22C51.4075 77.87 50.3675 78.89 49.7075 80.2C48.8975 81.81 48.7675 83.63 49.3275 85.34C49.8975 87.05 51.0875 88.43 52.6975 89.24C53.6475 89.72 54.6775 89.96 55.7175 89.96C56.4275 89.96 57.1475 89.85 57.8375 89.62C61.0375 88.56 62.9075 85.31 62.3475 82.08L83.8075 74.98L85.7475 74.34C86.0375 74.24 86.2675 74.02 86.3775 73.73L88.8075 66.88C89.0275 66.32 88.7475 65.75 88.2275 65.57ZM69.9775 36.23L75.8075 53.85L58.1875 59.68L52.3575 42.06L69.9775 36.23ZM64.6475 79.19L58.8175 61.57L76.4375 55.74L82.2675 73.35L64.6475 79.19ZM9.60751 10.23C9.60751 5.69 13.2975 2 17.8375 2C22.3775 2 26.0675 5.69 26.0675 10.23C26.0675 14.77 22.3775 18.46 17.8375 18.46C13.2975 18.46 9.60751 14.77 9.60751 10.23ZM29.0375 40.68L24.6075 35.07C24.3475 34.74 23.8975 34.61 23.4975 34.74C23.0975 34.88 22.8275 35.26 22.8275 35.68V48.02C22.8275 48.27 22.9175 48.51 23.0975 48.7L36.6575 63.34C37.1375 63.86 37.4375 64.49 37.5275 65.19L40.0175 83.74C40.2675 85.63 38.9975 87.36 37.1275 87.69C36.1975 87.85 35.2575 87.64 34.4875 87.1C33.7175 86.56 33.1975 85.75 33.0375 84.82L30.0175 67.66C29.9875 67.48 29.9075 67.32 29.7975 67.18L24.5875 61.08C24.3975 60.85 24.1175 60.73 23.8275 60.73C23.7075 60.73 23.5975 60.75 23.4775 60.79C23.0875 60.94 22.8275 61.31 22.8275 61.73L22.8375 68.61C22.8375 70.07 22.2475 71.48 21.2075 72.5L7.93751 85.52C6.55751 86.87 4.34751 86.85 2.98751 85.47C1.66751 84.12 1.66751 81.93 2.97751 80.58L11.3275 72.01C11.5075 71.82 11.6075 71.57 11.6075 71.31V26.09C11.6075 23.85 13.4275 22.03 15.6675 22.03H22.2375C22.9175 22.03 23.5675 22.35 23.9875 22.89L33.3475 35.02C33.4475 35.15 33.5875 35.26 33.7375 35.33L45.2175 40.33C46.0575 40.7 46.7075 41.37 47.0475 42.22C47.3875 43.07 47.3675 44.01 46.9975 44.85C46.6275 45.69 45.9575 46.34 45.0975 46.68C44.2375 47.01 43.2975 46.99 42.4575 46.62L29.0375 40.68ZM57.2275 87.68C56.0275 88.08 54.7375 87.98 53.6075 87.41C52.4775 86.84 51.6375 85.87 51.2375 84.67C50.8375 83.47 50.9375 82.18 51.5075 81.05C52.0775 79.92 53.0475 79.08 54.2475 78.68C54.7375 78.52 55.2375 78.44 55.7375 78.44C56.4675 78.44 57.1875 78.61 57.8575 78.95C58.9875 79.52 59.8275 80.49 60.2275 81.69C61.0575 84.18 59.7075 86.86 57.2275 87.68Z" fill="white"/>
<path d="M54.9064 80.6705C53.5164 81.1305 52.7564 82.6305 53.2164 84.0205C53.5864 85.1305 54.6264 85.8405 55.7364 85.8405C56.0164 85.8405 56.2964 85.8005 56.5664 85.7105C57.2364 85.4905 57.7864 85.0205 58.1064 84.3805C58.4264 83.7505 58.4764 83.0305 58.2564 82.3505C57.8064 80.9605 56.2964 80.2005 54.9064 80.6705ZM56.3264 83.4805C56.2464 83.6405 56.1164 83.7505 55.9464 83.8105C55.6064 83.9205 55.2364 83.7405 55.1164 83.3905C54.9964 83.0405 55.1864 82.6805 55.5364 82.5605C55.6064 82.5405 55.6764 82.5305 55.7464 82.5305C56.0264 82.5305 56.2764 82.7005 56.3664 82.9805C56.4164 83.1505 56.4064 83.3305 56.3264 83.4805Z" fill="white"/>
</svg>
