<svg width="94" height="96" viewBox="0 0 94 96" fill="none" xmlns="http://www.w3.org/2000/svg">
<path d="M14.5 36.5001H48.5C49.3281 36.5001 50 35.8287 50 35.0001V23.0001C50 22.1715 49.3281 21.5001 48.5 21.5001H14.5C13.6714 21.5001 13 22.1715 13 23.0001V35.0001C13 35.8287 13.6714 36.5001 14.5 36.5001ZM47 33.5001H33V24.5001H47V33.5001ZM16 24.5001H30V33.5001H16V24.5001ZM48.5 59.5001C49.3281 59.5001 50 58.8287 50 58.0001V46.0001C50 45.1715 49.3281 44.5001 48.5 44.5001H14.5C13.6714 44.5001 13 45.1715 13 46.0001V58.0001C13 58.8287 13.6714 59.5001 14.5 59.5001H48.5ZM47 56.5001H33V47.5001H47V56.5001ZM16 47.5001H30V56.5001H16V47.5001ZM91.0723 31.5318L60 26.3805V13.4495C61.6917 13.2043 63 11.7585 63 10V4C63 2.0703 61.4297 0.5 59.5 0.5H3.5C1.5703 0.5 0 2.0703 0 4V10C0 11.7585 1.3083 13.2042 3 13.4495V94C3 94.8286 3.6714 95.5 4.5 95.5H92.5C93.3281 95.5 94 94.8286 94 94V34.9849C94 33.2657 92.7686 31.8135 91.0723 31.5318ZM3 4.0001C3 3.7242 3.2241 3.5001 3.5 3.5001H59.5C59.7754 3.5001 60 3.7242 60 4.0001V10.0001C60 10.276 59.7754 10.5001 59.5 10.5001H3.5C3.2241 10.5001 3 10.276 3 10.0001V4.0001ZM6 13.5001H57V92.5001H46V68.0001C46 67.1715 45.3286 66.5001 44.5 66.5001H18.5C17.6714 66.5001 17 67.1715 17 68.0001V92.5001H6V13.5001ZM20 69.5001H30V92.5001H20V69.5001ZM33 92.5001V69.5001H43V92.5001H33ZM91 92.5001H60V29.4217L90.5811 34.4918C90.8243 34.5318 91 34.7394 91 34.985V92.5001ZM85.5 38.5001H65.5C64.6719 38.5001 64 39.1715 64 40.0001V50.0001C64 50.8287 64.6719 51.5001 65.5 51.5001H85.5C86.3281 51.5001 87 50.8287 87 50.0001V40.0001C87 39.1715 86.3281 38.5001 85.5 38.5001ZM67 41.5001H74V48.5001H67V41.5001ZM84 48.5001H77V41.5001H84V48.5001ZM85.5 55.5001H65.5C64.6719 55.5001 64 56.1715 64 57.0001V67.0001C64 67.8287 64.6719 68.5001 65.5 68.5001H85.5C86.3281 68.5001 87 67.8287 87 67.0001V57.0001C87 56.1715 86.3281 55.5001 85.5 55.5001ZM67 58.5001H74V65.5001H67V58.5001ZM84 65.5001H77V58.5001H84V65.5001ZM85.5 72.5001H65.5C64.6719 72.5001 64 73.1715 64 74.0001V84.0001C64 84.8287 64.6719 85.5001 65.5 85.5001H85.5C86.3281 85.5001 87 84.8287 87 84.0001V74.0001C87 73.1715 86.3281 72.5001 85.5 72.5001ZM67 75.5001H74V82.5001H67V75.5001ZM84 82.5001H77V75.5001H84V82.5001Z" fill="white"/>
</svg>
