<svg width="86" height="82" viewBox="0 0 86 82" fill="none" xmlns="http://www.w3.org/2000/svg">
<path d="M63.6257 42.5157C64.0593 39.8985 66.1296 39.1876 68.2702 38.336L76.3522 35.0977C77.1881 34.7618 78.0592 34.3399 78.9381 34.1329C80.0123 34.0899 80.5279 35.3477 79.6647 36.0118C79.0787 36.4649 78.0553 36.7227 77.3444 37.0118L70.696 39.7149C69.1413 40.3399 65.4421 41.168 65.8015 43.3516C65.9929 44.5039 68.6179 49.1797 69.2663 50.4375L71.0241 53.8711C71.6373 55.0664 73.1022 58.3828 74.7975 58.332C76.7506 58.2734 81.7155 55.2031 84.0045 54.8398C84.9615 55.1406 85.4733 56.3242 84.4849 56.8632C83.6959 57.2968 82.7701 57.5624 81.938 57.9062L78.0396 59.4921C75.7037 60.4374 74.9576 61.0194 72.4263 59.8046C69.6372 61.4179 67.7896 63.0116 65.8755 65.6054C69.2544 69.5585 65.7622 74.3945 61.02 72.7929C59.6059 75.4023 57.5825 76.2148 54.8755 76.6367C52.77 78.4336 51.8013 79.3359 48.7935 79.8906C46.3247 80.3476 47.2701 80.0156 44.856 81.0703C41.9068 82.3555 38.3912 81.8164 35.4849 80.6641C33.4029 81.1133 31.0669 80.5625 30.3716 78.3125C27.9536 78.6992 25.7271 77.4297 25.6528 74.7539C22.7817 74.8164 21.0044 72.3789 21.8833 69.6953C20.395 68.6523 19.0669 67.6015 17.8364 66.2539C14.9458 62.9531 14.8755 61.457 10.3091 58.8086C7.66072 59.6992 6.09433 58.4101 3.74273 57.3555C3.00445 57.0234 2.18803 56.7539 1.49273 56.3516C0.781785 55.9375 0.758346 54.8008 1.54351 54.4375C2.23101 54.121 5.28571 55.6992 6.07081 56.0547C9.77391 57.7422 9.64111 57.0468 11.2739 53.7422L15.7583 44.8008C17.5395 41.3047 17.5395 40.7539 14.0864 39.3125L9.25441 37.3398C8.35988 36.9843 7.35991 36.6679 6.52781 36.1914C5.79343 35.7734 5.63719 34.5742 6.54734 34.2422C7.41062 33.9297 15.1879 37.4492 16.3168 37.9375C17.8754 38.6054 18.3988 39.3516 19.0082 40.8867C26.4613 42.7187 32.5632 38.8789 39.1332 40.0117C41.7348 40.4609 40.6566 40.9296 43.2387 40.0156C51.6449 37.0351 55.7897 42.5196 63.6257 42.5157ZM47.5237 41.211C45.2776 41.2775 35.3087 45.1291 34.5787 45.9455C34.0982 46.4806 33.7584 47.2227 33.3326 47.8165C32.0123 49.6837 30.3014 51.59 28.356 52.8205C31.5201 55.0002 34.3052 53.8791 36.7857 51.2189C38.5435 49.3361 37.4771 50.2501 40.0435 49.8594C41.1997 49.6798 42.4419 49.4102 43.5201 48.9298C44.2193 48.6212 45.2389 47.8126 45.9967 48.3126C47.3795 49.2227 45.9108 50.2345 45.0944 50.6524C47.4616 52.8477 49.9186 54.8204 52.5944 56.6212C56.3132 59.2618 60.5085 61.715 64.0824 64.4259C65.7777 61.8204 68.2777 59.6486 71.0004 58.1759C69.7816 56.4845 68.9027 54.5939 67.9692 52.7384L65.8286 48.5782C65.2543 47.4493 64.2505 45.7579 63.8638 44.6251C58.4732 44.8985 50.8907 40.6759 47.5237 41.211ZM35.6647 41.9884C29.9655 42.5314 24.9307 44.5822 19.0087 43.0236C18.4189 44.3674 17.7353 45.672 17.079 46.9845L13.5087 54.0978C12.997 55.1369 12.3837 56.1603 11.9462 57.2306C13.5243 58.34 15.1376 59.465 16.4462 60.8908C19.2274 63.922 19.2353 65.4025 23.1767 67.9494L24.7861 66.3127C25.7588 65.3283 26.6572 64.3439 28.1455 64.3322C29.8643 64.3205 31.1885 65.465 31.7236 67.0314C35.1494 65.6759 37.5322 67.7033 37.1767 71.1916C39.3955 71.9299 40.4931 73.715 39.8994 75.9963C43.7158 77.6994 48.333 78.8049 52.0164 76.258C50.1844 75.6291 44.2625 73.1603 43.7312 72.1525C43.3093 71.3517 43.9499 70.6916 44.696 70.5353C45.4656 70.7267 46.1608 71.2033 46.8562 71.5665C49.4812 72.9376 52.2351 74.5899 55.2937 74.3517C56.8992 74.0783 58.114 73.2384 58.9968 71.8908C56.5359 70.7033 50.3601 67.926 48.3368 66.2189C47.622 65.6134 47.9306 63.5158 50.2938 64.9142C53.1844 66.6251 56.243 68.2111 59.2821 69.633C60.4344 70.1721 62.0829 71.2541 63.4149 70.8908C64.5672 70.5744 65.3172 69.2853 64.954 68.133C64.6064 67.0197 61.7509 65.4572 60.6298 64.6994C55.6415 61.3283 50.3058 58.0705 45.7318 54.1374C44.7357 53.278 43.7982 52.3522 42.7943 51.5085C41.4935 51.8562 40.2474 52.0632 38.8998 52.0866C35.2865 56.3054 30.7748 57.7819 26.3218 53.9108C24.2437 52.1061 26.0914 51.8014 27.4077 50.8717C29.1382 49.649 30.5444 48.0162 31.7515 46.2858C33.0757 44.3952 32.7047 44.1803 34.8882 43.2975C35.8531 42.9069 36.8921 42.5397 37.7827 41.9889C37.0835 41.9733 36.3608 41.946 35.6655 41.9889L35.6647 41.9884ZM28.0397 66.4574C27.0944 66.6644 24.5045 69.473 24.0124 70.2386C23.2038 71.4925 24.4108 72.598 25.653 72.5667C26.6921 72.3089 29.2038 69.6331 29.6296 68.93C30.3054 67.8128 29.2272 66.4887 28.0397 66.4574ZM33.5397 68.7621C32.278 68.9105 31.3405 70.348 30.5124 71.1879C29.7077 72.0004 28.778 72.8129 28.0827 73.7152C27.2741 74.7621 28.0827 76.1644 29.36 76.2582C30.2623 76.0238 34.5592 71.602 34.9108 71.0121C35.5631 69.9183 34.653 68.8285 33.5397 68.7621ZM36.0905 73.1918C35.1139 73.6137 32.7233 76.0434 32.3874 76.8363C31.8757 78.0551 33.1999 78.7855 34.2272 78.7699C35.0866 78.43 37.4616 76.0785 37.7741 75.4144C38.3093 74.2933 37.2663 73.0903 36.0905 73.1918ZM38.6139 77.7113C38.1334 78.1722 37.6256 78.6214 37.1764 79.1097C38.6373 79.512 40.0905 79.6566 41.6022 79.6253C42.0905 79.5745 42.5709 79.5277 43.0514 79.4417C41.4459 78.8128 40.2272 78.4301 38.6139 77.7113Z" fill="white"/>
<path d="M50.9503 21.884C51.3299 24.7515 49.5083 27.4185 46.4152 28.5191L46.4135 28.5208C45.5549 28.8258 44.6632 29.028 43.7582 29.1225V32.6878C43.7582 33.3822 43.193 33.9458 42.4985 33.9458C41.8039 33.9458 41.2387 33.3822 41.2387 32.6878V29.1158C40.9188 29.081 40.6006 29.033 40.2824 28.97C38.4028 28.6418 36.6591 27.765 35.2733 26.4522C34.781 25.9599 34.781 25.161 35.2733 24.6704C35.7656 24.1781 36.5628 24.1781 37.0551 24.6704C38.7076 26.3229 42.1635 27.3605 45.5695 26.1473C47.5436 25.4445 48.6756 23.898 48.4552 22.214C48.2397 20.5797 46.5242 18.5559 42.4002 18.2261C40.0349 18.0388 38.0063 17.3343 36.5327 16.189L36.5343 16.1874C35.1917 15.1928 34.3 13.7077 34.0497 12.0569C33.6701 9.18938 35.4917 6.52244 38.5848 5.42006C39.4451 5.11508 40.3352 4.90956 41.2418 4.81175V1.25972C41.2418 0.563582 41.8053 0 42.5015 0C43.196 0 43.7596 0.56354 43.7596 1.25972V4.81837C45.906 5.01893 47.9199 5.94049 49.4764 7.43227C49.9687 7.92287 49.9687 8.72182 49.4764 9.21407C48.9841 9.70637 48.1869 9.70637 47.6946 9.21407C45.8018 7.32122 42.4038 6.74109 39.4301 7.79858C37.4561 8.50134 36.324 10.0478 36.5444 11.7318C36.7599 13.3661 38.4754 15.3899 42.5995 15.7198C44.9647 15.9087 46.9933 16.6115 48.467 17.7568L48.4653 17.7585C49.8062 18.7513 50.7 20.2348 50.9503 21.884Z" fill="white"/>
</svg>
