<svg width="80" height="70" viewBox="0 0 80 70" fill="none" xmlns="http://www.w3.org/2000/svg">
<path d="M79.3065 28.2155L70.6229 19.6374C70.4744 19.4929 70.2752 19.4108 70.0682 19.4108H46.1772L40.8217 15.2936V2.35264C40.8217 2.34483 40.8178 2.33701 40.8178 2.3292C40.8178 2.27061 40.7982 2.21592 40.7826 2.15732C40.7709 2.11435 40.767 2.06748 40.7514 2.02841C40.7318 1.98935 40.7006 1.95419 40.6772 1.91903C40.6459 1.86825 40.6147 1.81747 40.5717 1.77841C40.5678 1.7745 40.5639 1.76669 40.56 1.75888C38.5131 -0.069221 36.9194 0.60268 35.6381 1.14169C34.6342 1.56357 33.8412 1.8995 32.7162 1.25888C32.7044 1.25107 31.3959 0.563569 30.9037 0.606539C30.4935 0.641695 30.181 0.98545 30.181 1.3956V7.1964C30.181 7.20812 30.1888 7.21984 30.1888 7.23156C30.1888 7.24328 30.1849 7.25499 30.1849 7.26671C30.1888 7.32921 30.2123 7.37999 30.2318 7.43859C30.2396 7.46594 30.2435 7.49328 30.2513 7.52062C30.2904 7.61047 30.3451 7.68859 30.4115 7.755C30.4232 7.76672 30.4388 7.77454 30.4544 7.78625C30.513 7.83704 30.5755 7.88391 30.6459 7.91516C30.6771 7.93079 30.7084 7.9347 30.7396 7.94251C30.7865 7.95813 30.8255 7.97766 30.8763 7.98548C31.0951 8.05188 31.8021 8.36439 31.9388 8.4386C32.6693 8.85657 33.3372 9.005 33.9427 9.005C34.8294 9.005 35.5911 8.6847 36.2591 8.40345C37.3489 7.94251 38.1029 7.64564 39.2474 8.53626V15.298L33.8919 19.4152H10.9619C10.7705 19.4152 10.583 19.4855 10.4385 19.6144L0.739285 28.1925C0.493195 28.4112 0.407255 28.7589 0.524445 29.0636C0.641635 29.3722 0.934606 29.5753 1.26273 29.5753H3.45413V61.0913H2.08302C1.64552 61.0913 1.29397 61.4468 1.29397 61.8803V64.7514C1.29397 65.1889 1.64943 65.5405 2.08302 65.5405H21.923V68.6538C21.923 69.0913 22.2785 69.4429 22.7121 69.4429H57.3681C57.8056 69.4429 58.1571 69.0874 58.1571 68.6538V65.5405H77.9971C78.4346 65.5405 78.7862 65.185 78.7862 64.7514V61.8803C78.7862 61.4428 78.4307 61.0913 77.9971 61.0913H76.7119V29.5753H78.7627C79.0831 29.5753 79.3721 29.38 79.4932 29.0831C79.6143 28.7862 79.544 28.4464 79.3174 28.2198L79.3065 28.2155ZM60.7635 32.6139L59.2987 34.5201L40.5097 20.0821C40.4941 20.0704 40.4745 20.0665 40.4589 20.0587C40.412 20.0274 40.3651 20.0079 40.3144 19.9883C40.2675 19.9688 40.2245 19.9532 40.1776 19.9415C40.1269 19.9337 40.08 19.9337 40.0292 19.9337C39.9784 19.9337 39.9315 19.9337 39.8808 19.9415C39.8339 19.9493 39.787 19.9688 39.744 19.9883C39.6933 20.0079 39.6464 20.0274 39.5995 20.0587C39.5839 20.0704 39.5644 20.0704 39.5487 20.0821L20.7597 34.5201L19.2949 32.6139L40.0329 16.6799L60.7709 32.6139H60.7635ZM45.0405 64.1219H40.8178V51.5789H45.0405V64.1219ZM39.2358 64.1219H35.0131V51.5789H39.2358V64.1219ZM54.6578 61.8758V64.1219H46.6187V50.7899C46.6187 50.3524 46.2632 50.0008 45.8296 50.0008H34.2206C33.7831 50.0008 33.4316 50.3563 33.4316 50.7899V64.1219H25.3925V32.9459L40.0255 21.7039L54.6585 32.9459L54.6578 61.8758ZM35.6308 6.9458C34.6269 7.36768 33.8339 7.70361 32.7089 7.06299C32.7011 7.05908 32.2323 6.81299 31.7518 6.62549V2.55519C31.83 2.59034 31.8925 2.62159 31.9237 2.63722C33.7284 3.66452 35.1229 3.07472 36.244 2.60206C37.3338 2.14112 38.0878 1.84425 39.2323 2.73487V6.68017C37.7987 6.03564 36.6191 6.52393 35.6308 6.9458ZM11.2478 20.9928H31.8178L22.7123 27.9889L4.23227 27.985H3.33774L11.2479 20.9889L11.2478 20.9928ZM5.02117 29.5709H20.6542L17.6972 31.8404C17.3495 32.106 17.287 32.6021 17.5526 32.9498L19.9823 36.11C20.1386 36.3131 20.373 36.4186 20.6113 36.4186C20.7792 36.4186 20.9472 36.3639 21.0917 36.2545L23.8144 34.1607V61.0827H5.02542V29.5667L5.02117 29.5709ZM2.85707 62.6649H23.8061V63.954H2.86107V62.6649H2.85707ZM56.5601 67.8563H23.4861V65.704H56.5601V67.8563ZM77.1891 63.9501H56.2361V62.661H77.1891V63.9501ZM75.1149 61.079H56.2399V34.157L58.9626 36.2508C59.1032 36.3563 59.2712 36.4149 59.443 36.4149C59.4782 36.4149 59.5134 36.411 59.5446 36.407C59.7516 36.3797 59.943 36.2703 60.068 36.1063L62.4977 32.9461C62.7634 32.5984 62.697 32.1023 62.3532 31.8367L59.3962 29.5672H75.1152V61.0832L75.1149 61.079ZM75.9078 27.985H57.3418L48.2363 20.9889H69.7443L76.8263 27.985H75.9078ZM40.1968 28.8873C36.0991 28.8873 32.7632 32.2232 32.7632 36.3209C32.7632 40.4186 36.0991 43.7545 40.1968 43.7545C44.2945 43.7545 47.6304 40.4186 47.6304 36.3209C47.6304 32.2232 44.2945 28.8873 40.1968 28.8873ZM45.9898 35.5318H45.4742C45.0367 35.5318 44.6852 35.8873 44.6852 36.3209C44.6852 36.7584 45.0406 37.11 45.4742 37.11H45.9898C45.6383 39.7038 43.5836 41.7584 40.9898 42.11V41.5943C40.9898 41.1568 40.6344 40.8053 40.2008 40.8053C39.7633 40.8053 39.4117 41.1608 39.4117 41.5943V42.11C36.8179 41.7584 34.7633 39.7038 34.4117 37.11H34.9273C35.3648 37.11 35.7164 36.7545 35.7164 36.3209C35.7164 35.8834 35.3609 35.5318 34.9273 35.5318H34.4117C34.7633 32.938 36.8179 30.8834 39.4117 30.5318V31.0475C39.4117 31.485 39.7672 31.8365 40.2008 31.8365C40.6383 31.8365 40.9898 31.481 40.9898 31.0475V30.5318C43.5836 30.8834 45.6382 32.938 45.9898 35.5318ZM43.2281 37.1099C43.611 37.3248 43.7438 37.8052 43.5328 38.188C43.3883 38.4458 43.1188 38.5943 42.8414 38.5943C42.7125 38.5943 42.5797 38.563 42.4547 38.4927L39.8102 37.0122C39.5602 36.8716 39.404 36.6099 39.404 36.3208V32.813C39.404 32.3755 39.7594 32.024 40.193 32.024C40.6305 32.024 40.9821 32.3794 40.9821 32.813V35.856L43.2243 37.1099L43.2281 37.1099ZM19.9551 36.5513H9.90414C9.46664 36.5513 9.11508 36.9068 9.11508 37.3404V47.3914C9.11508 47.8289 9.47055 48.1805 9.90414 48.1805H19.9511C20.3886 48.1805 20.7402 47.825 20.7402 47.3914V37.3404C20.7402 36.9029 20.3847 36.5513 19.9511 36.5513H19.9551ZM19.1661 41.5747H15.7247V38.1294H19.1661V41.5747ZM14.1427 38.1294V41.5747H10.6974V38.1294H14.1427ZM10.6974 43.1529H14.1427V46.5942H10.6974V43.1529ZM15.7208 46.5942V43.1529H19.1622V46.5942H15.7208ZM59.6428 37.1451V47.196C59.6428 47.6335 59.9982 47.9851 60.4318 47.9851H70.4828C70.9203 47.9851 71.2719 47.6296 71.2719 47.196V37.149C71.2719 36.7115 70.9164 36.36 70.4828 36.36H60.4318C59.9943 36.36 59.6428 36.7155 59.6428 37.149V37.1451ZM61.2248 42.9614H64.6701V46.4029H61.2248V42.9614ZM66.2482 46.4029V42.9614H69.6896V46.4029H66.2482ZM69.6896 41.3794H66.2482V37.9342H69.6896V41.3794ZM64.6662 37.9342V41.3794H61.2209V37.9342H64.6662Z" fill="white"/>
</svg>
