<svg width="94" height="94" viewBox="0 0 94 94" fill="none" xmlns="http://www.w3.org/2000/svg">
<path d="M30.7845 65.145C35.4525 69.0044 38.222 74.6645 38.5579 80.809H37.9954C37.1321 80.809 36.4329 81.5082 36.4329 82.3715V87.4574C36.4329 88.3206 37.1321 89.0199 37.9954 89.0199H41.097L41.1009 92.3129C41.1009 93.1761 41.8001 93.8754 42.6634 93.8754H51.3431C52.2064 93.8754 52.9056 93.1761 52.9056 92.3129V89.0199H56.0072C56.8705 89.0199 57.5697 88.3206 57.5697 87.4574V82.3715C57.5697 81.5082 56.8705 80.809 56.0072 80.809H55.4486C55.808 74.8012 58.722 69.024 63.6205 64.805C69.6713 59.5941 72.8744 52.024 72.4096 44.039C71.6674 31.223 61.0426 20.719 48.2146 20.117C41.199 19.8123 34.5116 22.2811 29.4336 27.1287C24.3477 31.9803 21.5508 38.5197 21.5508 45.5427C21.5469 53.1482 24.9134 60.293 30.7845 65.145ZM49.7765 90.75H44.2218V89.0195H49.7765V90.75ZM54.4406 85.8945H39.5576V83.9336H54.4406V85.8945ZM48.6554 61.1135C49.1866 61.1525 49.7179 61.176 50.2413 61.1799C49.6085 65.7307 48.9601 71.2539 48.4835 75.5039C48.7257 71.3359 48.9132 65.9498 48.6554 61.1135ZM31.5894 29.3945C36.0464 25.1406 41.8904 22.957 48.0694 23.2422C59.3194 23.7656 68.6394 32.9805 69.2884 44.2192C69.6946 51.2231 66.8822 57.8642 61.5775 62.4342C55.9837 67.2545 52.6439 73.8912 52.2806 80.8092H51.0423C51.4524 77.0045 52.4837 67.6452 53.4329 60.9262C54.6438 60.7152 55.7649 60.3793 56.7337 59.9106C58.5814 59.0199 59.8001 57.6801 60.2532 56.0434C60.804 54.0668 60.3274 52.1059 58.9837 50.8012C57.8587 49.7035 56.3353 49.309 54.9134 49.7504C53.8665 50.0707 52.0032 51.1488 51.2767 54.7113C51.097 55.598 50.9017 56.7386 50.6986 58.0433C49.9486 58.0511 49.1868 58.0237 48.4133 57.9417C48.1165 55.1253 47.6165 52.6878 46.8157 51.0589C45.2063 47.7855 43.0265 47.7777 42.175 47.9261C40.1633 48.2738 38.4875 50.4339 38.1828 53.0667C37.8547 55.9222 39.2766 58.3831 41.8937 59.4886C43.0499 59.9769 44.2687 60.3636 45.507 60.637C45.9055 67.3792 45.3938 75.969 44.9602 80.809H41.718C41.382 73.7231 38.1633 67.192 32.7727 62.735C27.6243 58.4772 24.6711 52.215 24.6711 45.544C24.6711 39.3878 27.1281 33.653 31.5891 29.396L31.5894 29.3945ZM53.9294 57.6245C54.0739 56.7417 54.2106 55.9683 54.3395 55.3315C54.6833 53.6518 55.3356 52.8862 55.8356 52.7338C55.9138 52.7064 55.9919 52.6986 56.0661 52.6986C56.4099 52.6986 56.6872 52.9252 56.8044 53.0384C57.3161 53.5384 57.4802 54.3471 57.2419 55.2065C57.0309 55.9643 56.402 56.6009 55.3747 57.097C54.9372 57.308 54.4528 57.4838 53.9294 57.6245ZM45.2146 57.3393C44.488 57.1362 43.7849 56.894 43.113 56.6127C41.2927 55.8432 41.1911 54.2846 41.2888 53.4252C41.445 52.0736 42.2341 51.0893 42.7068 51.0072C42.7185 51.0072 42.7341 51.0033 42.7458 51.0033C43.0232 51.0033 43.5193 51.4369 44.0114 52.4369C44.57 53.5736 44.9568 55.2847 45.2146 57.3393Z" fill="white"/>
<path d="M45.4375 1.6875V10.9531C45.4375 11.8164 46.1367 12.5156 47 12.5156C47.8633 12.5156 48.5625 11.8164 48.5625 10.9531V1.6875C48.5625 0.82422 47.8633 0.125 47 0.125C46.1367 0.125 45.4375 0.82422 45.4375 1.6875Z" fill="white"/>
<path d="M92.3126 45.4375H81.9336C81.0703 45.4375 80.3711 46.1367 80.3711 47C80.3711 47.8633 81.0703 48.5625 81.9336 48.5625H92.3126C93.1759 48.5625 93.8751 47.8633 93.8751 47C93.8751 46.1367 93.1759 45.4375 92.3126 45.4375Z" fill="white"/>
<path d="M1.6875 48.5625H12.0665C12.9298 48.5625 13.629 47.8633 13.629 47C13.629 46.1367 12.9298 45.4375 12.0665 45.4375H1.6875C0.82422 45.4375 0.125 46.1367 0.125 47C0.125 47.8633 0.82422 48.5625 1.6875 48.5625Z" fill="white"/>
<path d="M80.1445 13.8555C79.5351 13.2461 78.5468 13.2461 77.9336 13.8555L70.5938 21.1953C69.9844 21.8047 69.9844 22.793 70.5938 23.4062C70.8984 23.7109 71.2969 23.8632 71.6993 23.8632C72.0977 23.8632 72.5 23.7109 72.8048 23.4062L80.1446 16.0664C80.7578 15.4531 80.7577 14.4648 80.1445 13.8555Z" fill="white"/>
<path d="M13.8544 80.1445C14.1591 80.4491 14.5575 80.6015 14.9599 80.6015C15.3583 80.6015 15.7607 80.4491 16.0654 80.1445L23.4052 72.8047C24.0146 72.1953 24.0146 71.207 23.4052 70.5938C22.7958 69.9844 21.8075 69.9844 21.1943 70.5938L13.8545 77.9336C13.2412 78.5468 13.2411 79.5352 13.8544 80.1445Z" fill="white"/>
<path d="M21.1952 23.4023C21.4999 23.7069 21.8983 23.8593 22.3007 23.8593C22.6991 23.8593 23.1015 23.7069 23.4062 23.4023C24.0156 22.7929 24.0156 21.8046 23.4062 21.1914L16.0664 13.8516C15.457 13.2422 14.4687 13.2422 13.8555 13.8516C13.2461 14.4609 13.2461 15.4493 13.8555 16.0625L21.1952 23.4023Z" fill="white"/>
<path d="M70.5977 70.5986C69.9883 71.208 69.9883 72.1963 70.5977 72.8095L77.9375 80.1493C78.2421 80.454 78.6406 80.6064 79.043 80.6064C79.4414 80.6064 79.8437 80.454 80.1485 80.1493C80.7578 79.5399 80.7578 78.5516 80.1485 77.9384L72.8087 70.5986C72.1954 69.9854 71.207 69.9854 70.5977 70.5986Z" fill="white"/>
<path d="M46.3988 35.4455L48.8597 34.8752L46.8519 41.8635C46.6137 42.6916 47.0941 43.5588 47.9222 43.7971C48.0668 43.8361 48.2113 43.8596 48.3558 43.8596C49.0355 43.8596 49.6605 43.4143 49.8558 42.7268L52.598 33.1838C52.7504 32.6525 52.6098 32.0783 52.2308 31.676C51.848 31.2736 51.2855 31.1057 50.7464 31.2307L48.5042 31.7502L49.4691 29.1018C49.766 28.2893 49.348 27.3948 48.5355 27.0979C47.7269 26.8049 46.8285 27.219 46.5316 28.0315L44.5785 33.3909C44.3832 33.93 44.4965 34.5315 44.8754 34.9612C45.2582 35.3909 45.8442 35.5783 46.3988 35.4455Z" fill="white"/>
</svg>
