<svg width="99" height="78" viewBox="0 0 99 78" fill="none" xmlns="http://www.w3.org/2000/svg">
<path fill-rule="evenodd" clip-rule="evenodd" d="M37.9805 40.0835C37.4188 40.0835 36.9448 39.6489 36.905 39.0801C36.5534 34.0662 37.2166 28.9613 38.6794 25.4243C39.7247 22.8971 40.6424 21.0666 41.3801 19.596C43.1953 15.976 44.1066 14.1594 44.3166 7.60126C44.3357 7.00549 44.8337 6.53917 45.4299 6.55714C46.0256 6.57626 46.4929 7.07471 46.4738 7.67053C46.2485 14.7028 45.1423 16.9088 43.3093 20.5637C42.5498 22.0781 41.689 23.7945 40.6739 26.2492C39.3328 29.4923 38.7286 34.2324 39.058 38.929C39.0998 39.5233 38.6517 40.0394 38.057 40.081C38.0314 40.0828 38.0058 40.0837 37.9805 40.0835ZM60.8801 40.0835C60.855 40.0835 60.8292 40.0828 60.8036 40.081C60.209 40.0392 59.7608 39.5234 59.8024 38.929C60.1319 34.2324 59.5279 29.4923 58.1866 26.2492C57.1715 23.7942 56.3108 22.0781 55.5513 20.5637C53.7183 16.9086 52.6119 14.7028 52.3868 7.67053C52.3678 7.07451 52.8352 6.57626 53.4309 6.55714C54.0307 6.54312 54.525 7.00549 54.5441 7.60126C54.7542 14.1592 55.6653 15.9762 57.4806 19.596C58.2181 21.0666 59.1361 22.8972 60.1811 25.4243C61.644 28.9612 62.3073 34.0663 61.9557 39.0801C61.9156 39.6487 61.4417 40.0837 60.8801 40.0835Z" fill="white"/>
<path fill-rule="evenodd" clip-rule="evenodd" d="M44.7101 2.15859C44.3878 2.15859 44.1156 2.43085 44.1156 2.75327L44.1157 5.9617C44.1157 6.28419 44.3876 6.55651 44.71 6.55651L54.1449 6.55632C54.4673 6.55632 54.7395 6.28425 54.7395 5.96183L54.7396 2.7532C54.7396 2.43072 54.4673 2.15859 54.1449 2.15859H44.7101ZM54.1449 8.71491H44.7101C43.1921 8.71491 41.957 7.47992 41.957 5.96183V2.7532C41.957 1.23512 43.192 0.000254057 44.71 0.000254057L54.1449 0C55.6628 0 56.8979 1.23524 56.8979 2.75327L56.898 5.9617C56.898 7.47979 55.6627 8.71491 54.1449 8.71491Z" fill="white"/>
<path fill-rule="evenodd" clip-rule="evenodd" d="M58.7843 25.9652H40.0791C39.4833 25.9652 39 25.482 39 24.886C39.0001 24.29 39.4831 23.8068 40.079 23.8068L58.7843 23.8066C59.3803 23.8066 59.8634 24.29 59.8634 24.886C59.8635 25.4818 59.3803 25.9652 58.7843 25.9652Z" fill="white"/>
<path fill-rule="evenodd" clip-rule="evenodd" d="M6.08158 40.0841C3.91822 40.0841 2.15821 41.8443 2.15821 44.0076L2.15827 66.7836C2.15827 71.26 5.80027 74.9023 10.2768 74.9023L88.5813 74.902C93.0583 74.902 96.7006 71.2602 96.7006 66.7836V44.0076C96.7006 41.8443 94.9401 40.0842 92.7773 40.0842L6.08158 40.0841ZM88.5815 77.0606H10.277C4.61028 77.0606 0 72.4504 0 66.7836L6.38181e-05 44.0076C6.38181e-05 40.6542 2.72835 37.9259 6.08171 37.9259L92.7777 37.9258C96.1299 37.9258 98.8593 40.6542 98.8593 44.0076L98.8594 66.7836C98.8594 72.4503 94.2478 77.0607 88.5815 77.0606Z" fill="white"/>
<path fill-rule="evenodd" clip-rule="evenodd" d="M39.1407 48.7992C37.4663 48.7992 36.1037 50.1614 36.1037 51.836C36.1038 53.5106 37.4662 54.873 39.1407 54.873L59.7214 54.8729C61.3958 54.8729 62.7581 53.5107 62.7581 51.836C62.7581 50.1612 61.3958 48.7992 59.7213 48.7992L39.1407 48.7992ZM59.7214 57.0314H39.1407C36.276 57.0314 33.9453 54.7008 33.9453 51.836C33.9453 48.9714 36.2759 46.6408 39.1407 46.6408L59.7214 46.6406C62.5859 46.6406 64.9167 48.9714 64.9167 51.836C64.9168 54.7006 62.5858 57.0315 59.7214 57.0314Z" fill="white"/>
<path fill-rule="evenodd" clip-rule="evenodd" d="M7.82821 40.0835C7.26654 40.0835 6.79257 39.6489 6.75274 39.0801C6.401 34.0664 7.06413 28.9618 8.52709 25.4243C9.57216 22.8971 10.4901 21.0668 11.2275 19.5962C13.0429 15.9763 13.9541 14.1594 14.1638 7.60126C14.1832 7.00549 14.676 6.53917 15.2772 6.55714C15.8728 6.57626 16.3404 7.07471 16.3213 7.67053C16.0964 14.7028 14.9898 16.9088 13.1568 20.5637C12.3974 22.0781 11.5367 23.7945 10.5216 26.2492C9.18027 29.4923 8.5761 34.2327 8.90572 38.929C8.9474 39.5233 8.49924 40.0392 7.90475 40.081C7.879 40.0828 7.85351 40.0837 7.82821 40.0835ZM30.7276 40.0835C30.7022 40.0835 30.6765 40.0828 30.6509 40.081C30.0563 40.039 29.6082 39.5234 29.65 38.929C29.9795 34.2326 29.3755 29.4926 28.0341 26.2492C27.0191 23.7942 26.1583 22.0781 25.3989 20.5637C23.5659 16.9086 22.4594 14.7028 22.2343 7.67053C22.2154 7.07451 22.6827 6.57626 23.2783 6.55714C23.868 6.54057 24.3725 7.00549 24.3916 7.60126C24.6017 14.1592 25.5128 15.9762 27.3281 19.596C28.0656 21.0666 28.9836 22.8972 30.0286 25.4243C31.4916 28.9615 32.1548 34.0663 31.8029 39.0801C31.7632 39.6487 31.2892 40.0837 30.7276 40.0835Z" fill="white"/>
<path fill-rule="evenodd" clip-rule="evenodd" d="M14.5617 2.15859C14.2393 2.15859 13.9672 2.43085 13.9672 2.75327V5.9617C13.9672 6.28419 14.2392 6.55651 14.5616 6.55651L23.9964 6.55632C24.3189 6.55632 24.5911 6.28425 24.5911 5.96183L24.5912 2.7532C24.5912 2.43072 24.3188 2.15859 23.9964 2.15859H14.5617ZM23.9964 8.71491H14.5617C13.0438 8.71491 11.8086 7.47992 11.8086 5.96183L11.8087 2.7532C11.8087 1.23512 13.0438 0.000254057 14.5616 0.000254057L23.9964 0C25.5146 0 26.7495 1.23524 26.7495 2.75327V5.9617C26.7495 7.47979 25.5144 8.71491 23.9964 8.71491Z" fill="white"/>
<path fill-rule="evenodd" clip-rule="evenodd" d="M28.6324 25.9652H9.92689C9.3308 25.9652 8.84766 25.482 8.84766 24.886C8.84772 24.29 9.33081 23.8068 9.92682 23.8068L28.6324 23.8066C29.2284 23.8066 29.7115 24.29 29.7115 24.886C29.7115 25.4818 29.2283 25.9652 28.6324 25.9652Z" fill="white"/>
<path fill-rule="evenodd" clip-rule="evenodd" d="M68.1328 40.0835C67.5712 40.0835 67.0972 39.6489 67.0574 39.0801C66.7058 34.0662 67.369 28.9613 68.8317 25.4243C69.8768 22.8971 70.7947 21.0668 71.5322 19.5962C73.3478 15.9763 74.2587 14.1594 74.4687 7.60126C74.4879 7.00549 74.9856 6.53917 75.582 6.55714C76.1777 6.57626 76.6451 7.07471 76.626 7.67053C76.401 14.7028 75.2945 16.9088 73.4617 20.5637C72.7022 22.0781 71.8413 23.7945 70.8262 26.2492C69.4851 29.4923 68.881 34.2324 69.2103 38.929C69.2523 39.5233 68.804 40.0394 68.2094 40.081C68.1839 40.0828 68.1581 40.0837 68.1328 40.0835ZM91.0313 40.0835C91.0066 40.0835 90.9819 40.0828 90.9548 40.081C90.3613 40.0392 89.913 39.5234 89.9548 38.929C90.285 34.2324 89.6801 29.4923 88.339 26.2492C87.3239 23.7942 86.463 22.0781 85.7035 20.5637C83.8708 16.9086 82.7643 14.7028 82.539 7.67053C82.5202 7.07451 82.9875 6.57626 83.5831 6.55714C84.1723 6.54057 84.6772 7.00549 84.6962 7.60126C84.9063 14.1592 85.8177 15.9762 87.633 19.596C88.3705 21.0666 89.2885 22.8972 90.3344 25.4243C91.7958 28.9612 92.459 34.0663 92.1083 39.0801C92.0679 39.6487 91.5934 40.0837 91.0313 40.0835Z" fill="white"/>
<path fill-rule="evenodd" clip-rule="evenodd" d="M74.8626 2.15859C74.5401 2.15859 74.2678 2.43085 74.2678 2.75327V5.9617C74.2678 6.28419 74.54 6.55651 74.8624 6.55651L84.2973 6.55632C84.6195 6.55632 84.8917 6.28425 84.8917 5.96183L84.8918 2.7532C84.8918 2.43072 84.6194 2.15859 84.2973 2.15859H74.8626ZM84.2973 8.71491H74.8626C73.3444 8.71491 72.1094 7.47992 72.1094 5.96183L72.1095 2.7532C72.1095 1.23512 73.3444 0.000254057 74.8624 0.000254057L84.2973 0C85.8152 0 87.05 1.23524 87.05 2.75327L87.0501 5.9617C87.0501 7.47979 85.8151 8.71491 84.2973 8.71491Z" fill="white"/>
<path fill-rule="evenodd" clip-rule="evenodd" d="M88.933 25.9652H70.2277C69.6317 25.9652 69.1484 25.482 69.1484 24.886C69.1486 24.29 69.6317 23.8068 70.2277 23.8068L88.933 23.8066C89.529 23.8066 90.0123 24.29 90.0123 24.886C90.0124 25.4818 89.5289 25.9652 88.933 25.9652Z" fill="white"/>
</svg>
