<svg width="96" height="96" viewBox="0 0 96 96" fill="none" xmlns="http://www.w3.org/2000/svg">
<path d="M77.168 95.2226H60.5C59.7344 95.2226 59.1094 94.6015 59.1094 93.832V77.164C59.1094 76.3984 59.7305 75.7734 60.5 75.7734H77.168C77.9336 75.7734 78.5586 76.3945 78.5586 77.164V93.832C78.5547 94.6016 77.9336 95.2226 77.168 95.2226ZM61.891 92.4453H75.782V78.5543H61.891V92.4453Z" fill="white"/>
<path d="M71.6094 84.1093H66.0547C65.289 84.1093 64.6641 83.4882 64.6641 82.7187V77.164C64.6641 76.3984 65.2852 75.7734 66.0547 75.7734H71.6094C72.375 75.7734 73 76.3945 73 77.164V82.7187C73 83.4883 72.3789 84.1093 71.6094 84.1093ZM67.4453 81.332H70.2226V78.5547H67.4453V81.332Z" fill="white"/>
<path d="M60.5 95.2226H43.832C43.0664 95.2226 42.4414 94.6015 42.4414 93.832V77.164C42.4414 76.3984 43.0625 75.7734 43.832 75.7734H60.5C61.2656 75.7734 61.8906 76.3945 61.8906 77.164V93.832C61.8906 94.6016 61.2656 95.2226 60.5 95.2226ZM45.223 92.4453H59.114V78.5543H45.223V92.4453Z" fill="white"/>
<path d="M54.9453 84.1093H49.3906C48.625 84.1093 48 83.4882 48 82.7187V77.164C48 76.3984 48.6211 75.7734 49.3906 75.7734H54.9453C55.7109 75.7734 56.3359 76.3945 56.3359 77.164V82.7187C56.332 83.4883 55.7109 84.1093 54.9453 84.1093ZM50.7773 81.332H53.5546V78.5547H50.7773V81.332Z" fill="white"/>
<path d="M68.832 78.5547H52.164C51.3984 78.5547 50.7734 77.9336 50.7734 77.1641V60.4961C50.7734 59.7304 51.3945 59.1055 52.164 59.1055H68.832C69.5977 59.1055 70.2226 59.7266 70.2226 60.4961V77.1641C70.2226 77.9336 69.6015 78.5547 68.832 78.5547ZM53.555 75.7774H67.446V61.8864H53.555V75.7774Z" fill="white"/>
<path d="M63.2773 67.4453H57.7226C56.957 67.4453 56.332 66.8242 56.332 66.0547V60.5C56.332 59.7344 56.9531 59.1094 57.7226 59.1094H63.2773C64.043 59.1094 64.6679 59.7305 64.6679 60.5V66.0547C64.6679 66.8242 64.0468 67.4453 63.2773 67.4453ZM59.1093 64.668H61.8866V61.8907H59.1093V64.668Z" fill="white"/>
<path d="M35.5 95.2226H18.832C18.0664 95.2226 17.4414 94.6015 17.4414 93.832V77.164C17.4414 76.3984 18.0625 75.7734 18.832 75.7734H35.5C36.2656 75.7734 36.8906 76.3945 36.8906 77.164V93.832C36.8906 94.6016 36.2656 95.2226 35.5 95.2226ZM20.223 92.4453H34.114V78.5543H20.223V92.4453Z" fill="white"/>
<path d="M29.9453 84.1093H24.3906C23.625 84.1093 23 83.4882 23 82.7187V77.164C23 76.3984 23.6211 75.7734 24.3906 75.7734H29.9453C30.7109 75.7734 31.3359 76.3945 31.3359 77.164V82.7187C31.332 83.4883 30.7109 84.1093 29.9453 84.1093ZM25.7773 81.332H28.5546V78.5547H25.7773V81.332Z" fill="white"/>
<path d="M93.832 28.5546H2.16404C1.39842 28.5546 0.773438 27.9335 0.773438 27.164V16.055C0.773438 15.4418 1.17188 14.9027 1.75781 14.7269L47.5898 0.835938C47.8515 0.757812 48.1328 0.757812 48.3945 0.835938L94.2265 14.7269C94.8203 14.9027 95.2226 15.4457 95.2226 16.055V27.164C95.2226 27.9336 94.6015 28.5546 93.832 28.5546ZM3.55504 25.7773H92.446V17.0859L48.001 3.61694L3.55604 17.0859L3.55504 25.7773Z" fill="white"/>
<path d="M88.2776 95.2226H7.72263C6.95701 95.2226 6.33203 94.6015 6.33203 93.832V27.164C6.33203 26.3984 6.95312 25.7734 7.72263 25.7734H88.2776C89.0433 25.7734 89.6682 26.3945 89.6682 27.164V93.832C89.6682 94.6016 89.0471 95.2226 88.2776 95.2226ZM9.10963 92.4453H86.8866L86.8905 28.5543H9.10954L9.10963 92.4453Z" fill="white"/>
<path d="M79.9457 45.2226H16.0547C15.289 45.2226 14.6641 44.6015 14.6641 43.832V38.2773C14.6641 37.5117 15.2852 36.8867 16.0547 36.8867H79.9457C80.7113 36.8867 81.3363 37.5078 81.3363 38.2773V43.832C81.3324 44.6015 80.7113 45.2226 79.9457 45.2226ZM17.4457 42.4453H78.5547V39.668H17.4457V42.4453Z" fill="white"/>
<path d="M77.1679 95.2226H18.8359C18.0703 95.2226 17.4453 94.6015 17.4453 93.832V43.832C17.4453 43.0664 18.0664 42.4414 18.8359 42.4414H77.1679C77.9335 42.4414 78.5585 43.0625 78.5585 43.832V93.832C78.5546 94.6015 77.9335 95.2226 77.1679 95.2226ZM20.2229 92.4453H75.7779V45.2223H20.2229V92.4453Z" fill="white"/>
</svg>
